<svg width="64" height="64" viewBox="0 0 64 64" fill="none" xmlns="http://www.w3.org/2000/svg">
<g clip-path="url(#clip0_196_1426)">
<path d="M54.75 18.6245C59.8506 18.6245 64 14.4751 64 9.375C64 4.27441 59.8506 0.125 54.75 0.125C49.6499 0.125 45.5005 4.27441 45.5005 9.375C45.5005 11.4751 46.2051 13.4126 47.3887 14.9673L38.3042 24.0518C36.564 22.6899 34.376 21.8745 31.9995 21.8745C30.2207 21.8745 28.5474 22.3306 27.0879 23.1309L21.6411 15.5361C22.4287 14.6177 22.9058 13.4263 22.9058 12.124C22.9058 9.22949 20.5508 6.87451 17.6563 6.87451C14.7612 6.87451 12.4062 9.22949 12.4062 12.124C12.4062 15.019 14.7612 17.374 17.6563 17.374C18.3472 17.374 19.0063 17.2388 19.6108 16.9951L25.0586 24.5908C23.0259 26.4653 21.7495 29.1479 21.7495 32.1245C21.7495 37.7759 26.3477 42.374 31.9995 42.374C34.376 42.374 36.564 41.5591 38.3042 40.1968L45.1953 47.0879C44.3652 48.2666 43.8755 49.7021 43.8755 51.2505C43.8755 55.248 47.1279 58.5 51.1255 58.5C55.1231 58.5 58.3755 55.248 58.3755 51.2505C58.3755 47.2529 55.1231 44.0005 51.1255 44.0005C49.5772 44.0005 48.1421 44.4897 46.9629 45.3198L40.0718 38.4292C41.4341 36.6885 42.249 34.5005 42.249 32.1245C42.249 29.748 41.4341 27.5601 40.0718 25.8198L49.1563 16.7354C50.7109 17.9194 52.6494 18.6245 54.75 18.6245ZM14.9063 12.124C14.9063 10.6079 16.1396 9.37451 17.6563 9.37451C19.1724 9.37451 20.4063 10.6079 20.4063 12.124C20.4063 13.6406 19.1724 14.874 17.6563 14.874C16.1396 14.874 14.9063 13.6406 14.9063 12.124ZM54.75 2.625C58.4722 2.625 61.5 5.65283 61.5 9.375C61.5 13.0967 58.4722 16.1245 54.75 16.1245C52.9458 16.1245 51.3057 15.4116 50.0933 14.2539C50.0615 14.2124 50.0273 14.1724 49.9897 14.1343C49.9517 14.0967 49.9116 14.063 49.8706 14.0308C48.7134 12.8188 48.0005 11.1792 48.0005 9.375C48.0005 5.65283 51.0283 2.625 54.75 2.625ZM24.2495 32.1245C24.2495 27.8511 27.7261 24.3745 31.9995 24.3745C36.273 24.3745 39.7495 27.8511 39.7495 32.1245C39.7495 36.3975 36.273 39.874 31.9995 39.874C27.7261 39.874 24.2495 36.3975 24.2495 32.1245ZM55.8755 51.2505C55.8755 53.8691 53.7446 56 51.1255 56C48.5064 56 46.3755 53.8691 46.3755 51.2505C46.3755 50.0205 46.8457 48.8984 47.6147 48.0542C47.6753 48.0122 47.7329 47.9653 47.7871 47.9116C47.8408 47.8579 47.8877 47.7998 47.9292 47.7397C48.7739 46.9702 49.896 46.5005 51.1255 46.5005C53.7446 46.5005 55.8755 48.6313 55.8755 51.2505Z" fill="#074DFF"/>
<path d="M31.999 27.8745C29.6558 27.8745 27.749 29.7808 27.749 32.1245C27.749 34.4678 29.6558 36.3745 31.999 36.3745C34.3423 36.3745 36.249 34.4678 36.249 32.1245C36.249 29.7808 34.3423 27.8745 31.999 27.8745ZM31.999 33.8745C31.0342 33.8745 30.249 33.0894 30.249 32.1245C30.249 31.1592 31.0342 30.3745 31.999 30.3745C32.9639 30.3745 33.749 31.1592 33.749 32.1245C33.749 33.0894 32.9639 33.8745 31.999 33.8745Z" fill="#074DFF"/>
<path d="M16.7969 45.5592L13.9868 48.3693C12.5259 47.274 10.7124 46.6246 8.75 46.6246C3.92529 46.6246 0 50.5499 0 55.3741C0 60.1989 3.92529 64.1241 8.75 64.1241C13.5742 64.1241 17.4995 60.1989 17.4995 55.3741C17.4995 53.4117 16.8501 51.5983 15.7549 50.1368L18.5645 47.3273C19.0527 46.839 19.0527 46.0475 18.5645 45.5592C18.0767 45.0714 17.2852 45.0714 16.7969 45.5592ZM8.75 61.6241C5.30371 61.6241 2.5 58.8204 2.5 55.3741C2.5 51.9283 5.30371 49.1246 8.75 49.1246C12.1958 49.1246 14.9995 51.9283 14.9995 55.3741C14.9995 58.8204 12.1958 61.6241 8.75 61.6241Z" fill="#074DFF"/>
<path d="M20.7715 41.584C20.2832 42.0723 20.2832 42.8638 20.7715 43.3521L20.7764 43.3564C21.0195 43.6001 21.3379 43.7217 21.6567 43.7217C21.9766 43.7217 22.2969 43.5986 22.5415 43.354C23.0298 42.8662 23.0273 42.0723 22.5391 41.584C22.0513 41.0957 21.2593 41.0957 20.7715 41.584Z" fill="#074DFF"/>
</g>
<defs>
<clipPath id="clip0_196_1426">
<rect width="64" height="64" fill="white"/>
</clipPath>
</defs>
</svg>
