<svg width="64" height="64" viewBox="0 0 64 64" fill="none" xmlns="http://www.w3.org/2000/svg">
<path d="M6.5 33C6.89434 33 7.28105 32.893 7.55996 32.707C7.83945 32.5211 8 32.2629 8 32C8 31.7371 7.83945 31.4789 7.55996 31.293C7.28105 31.107 6.89434 31 6.5 31C6.10391 31 5.71836 31.107 5.43945 31.293C5.15879 31.4789 5 31.7371 5 32C5 32.2629 5.15879 32.5211 5.43945 32.707C5.71836 32.893 6.10508 33 6.5 33Z" fill="#074DFF"/>
<path d="M11.5 33C11.8943 33 12.2811 32.893 12.56 32.707C12.8395 32.5211 13 32.2629 13 32C13 31.7371 12.8395 31.4789 12.56 31.293C12.2811 31.107 11.8943 31 11.5 31C11.1039 31 10.7184 31.107 10.4395 31.293C10.1588 31.4789 10 31.7371 10 32C10 32.2629 10.1588 32.5211 10.4395 32.707C10.7184 32.893 11.1051 33 11.5 33Z" fill="#074DFF"/>
<path d="M18.2692 33H26.7308C27.4313 33 28 32.5523 28 32C28 31.4477 27.4313 31 26.7308 31H18.2692C17.5682 31 17 31.4477 17 32C17 32.5523 17.5682 33 18.2692 33Z" fill="#074DFF"/>
<path d="M6.5 47C6.10391 47 5.71836 47.107 5.43945 47.293C5.15879 47.4789 5 47.7371 5 48C5 48.2629 5.15879 48.5211 5.43945 48.707C5.71836 48.893 6.10391 49 6.5 49C6.89434 49 7.28105 48.893 7.55996 48.707C7.83945 48.5211 8 48.2629 8 48C8 47.7371 7.83945 47.4789 7.55996 47.293C7.28105 47.107 6.89434 47 6.5 47Z" fill="#074DFF"/>
<path d="M11.5 47C11.1039 47 10.7184 47.107 10.4377 47.293C10.1588 47.4789 10 47.7371 10 48C10 48.2629 10.1588 48.5211 10.4377 48.707C10.7184 48.893 11.1039 49 11.5 49C11.8943 49 12.2811 48.893 12.56 48.707C12.8395 48.5211 13 48.2629 13 48C13 47.7371 12.8395 47.4789 12.56 47.293C12.2811 47.107 11.8943 47 11.5 47Z" fill="#074DFF"/>
<path d="M26.7308 47H18.2692C17.5687 47 17 47.4477 17 48C17 48.5523 17.5687 49 18.2692 49H26.7308C27.4318 49 28 48.5523 28 48C28 47.4477 27.4318 47 26.7308 47Z" fill="#074DFF"/>
<path d="M6.5 17C6.89434 17 7.28105 16.893 7.55996 16.707C7.83945 16.5211 8 16.2629 8 16C8 15.7371 7.83945 15.4789 7.55996 15.293C7.28105 15.107 6.89434 15 6.5 15C6.10391 15 5.71836 15.107 5.43945 15.293C5.15879 15.4789 5 15.7371 5 16C5 16.2629 5.15879 16.5211 5.43945 16.707C5.71836 16.893 6.10391 17 6.5 17Z" fill="#074DFF"/>
<path d="M11.5 17C11.8943 17 12.2811 16.893 12.56 16.707C12.8395 16.5211 13 16.2629 13 16C13 15.7371 12.8395 15.4789 12.56 15.293C12.2811 15.107 11.8943 15 11.5 15C11.1051 15 10.7184 15.107 10.4395 15.293C10.1588 15.4789 10 15.7371 10 16C10 16.2629 10.1588 16.5211 10.4395 16.707C10.7184 16.893 11.1039 17 11.5 17Z" fill="#074DFF"/>
<path d="M18.2692 17H26.7308C27.4313 17 28 16.5523 28 16C28 15.4477 27.4313 15 26.7308 15H18.2692C17.5682 15 17 15.4477 17 16C17 16.5523 17.5682 17 18.2692 17Z" fill="#074DFF"/>
<path d="M59 13C61.757 13 64 10.757 64 8C64 5.24301 61.757 3 59 3C56.243 3 54 5.24301 54 8C54 10.757 56.243 13 59 13ZM59 5.63158C60.306 5.63158 61.3684 6.69398 61.3684 8C61.3684 9.30602 60.306 10.3684 59 10.3684C57.694 10.3684 56.6316 9.30602 56.6316 8C56.6316 6.69398 57.694 5.63158 59 5.63158Z" fill="#074DFF"/>
<path d="M59.25 51.5C57.0635 51.5 55.2183 52.9854 54.668 55H42.7925L37.8306 47.5864C37.5986 47.2398 37.209 47.0318 36.7915 47.0318H33.5V45.25C33.5 43.2666 31.9517 41.6387 30 41.5093V38.9907C31.9517 38.8614 33.5 37.2334 33.5 35.25V33.5308L47.9233 33.5176C48.4795 35.523 50.3198 37 52.5 37C55.1191 37 57.25 34.8692 57.25 32.25C57.25 29.6309 55.1191 27.5 52.5 27.5C50.3071 27.5 48.457 28.9942 47.9131 31.0176L33.5 31.0308V29.25C33.5 27.2666 31.9517 25.6387 30 25.5093V22.9908C31.9517 22.8614 33.5 21.2334 33.5 19.25V17.5001H36.7915C37.209 17.5001 37.5991 17.2916 37.8311 16.9444L42.7959 9.51178L44.5083 9.50006C45.1987 9.49566 45.7544 8.93219 45.75 8.24176C45.7456 7.55133 45.1782 6.99323 44.4917 7.00006L42.1167 7.01618C41.7021 7.01862 41.3159 7.22711 41.0854 7.57135L36.1235 15.0001H33.5V13.2501C33.5 11.1822 31.8179 9.50006 29.75 9.50006H3.75C1.68213 9.50006 0 11.1822 0 13.2501V19.25C0 21.2334 1.54834 22.8614 3.5 22.9908V25.5093C1.54834 25.6387 0 27.2666 0 29.25V35.25C0 37.2334 1.54834 38.8614 3.5 38.9907V41.5093C1.54834 41.6387 0 43.2666 0 45.25V51.25C0 53.3179 1.68213 55 3.75 55H29.75C31.8179 55 33.5 53.3179 33.5 51.25V49.5317H36.124L41.0864 56.9453C41.3184 57.292 41.708 57.5 42.125 57.5H54.668C55.2183 59.5146 57.0635 61 59.25 61C61.8691 61 64 58.8691 64 56.25C64 53.6309 61.8691 51.5 59.25 51.5ZM52.5 30C53.7407 30 54.75 31.0093 54.75 32.25C54.75 33.4908 53.7407 34.5 52.5 34.5C51.2593 34.5 50.25 33.4908 50.25 32.25C50.25 31.0093 51.2593 30 52.5 30ZM6 39H27.5V41.5H6V39ZM6 23H27.5V25.5H6V23ZM2.5 19.25V13.2501C2.5 12.5606 3.06055 12.0001 3.75 12.0001H29.75C30.4395 12.0001 31 12.5606 31 13.2501V19.25C31 19.9395 30.4395 20.5 29.75 20.5H3.75C3.06055 20.5 2.5 19.9395 2.5 19.25ZM2.5 35.25V29.25C2.5 28.5606 3.06055 28 3.75 28H29.75C30.4395 28 31 28.5606 31 29.25V35.25C31 35.9395 30.4395 36.5 29.75 36.5H3.75C3.06055 36.5 2.5 35.9395 2.5 35.25ZM31 51.25C31 51.9395 30.4395 52.5 29.75 52.5H3.75C3.06055 52.5 2.5 51.9395 2.5 51.25V45.25C2.5 44.5606 3.06055 44 3.75 44H29.75C30.4395 44 31 44.5606 31 45.25V51.25ZM59.25 58.5C58.0093 58.5 57 57.4907 57 56.25C57 55.0093 58.0093 54 59.25 54C60.4907 54 61.5 55.0093 61.5 56.25C61.5 57.4907 60.4907 58.5 59.25 58.5Z" fill="#074DFF"/>
<path d="M50 9C50.2629 9 50.5211 8.89297 50.707 8.70703C50.893 8.52109 51 8.26289 51 8C51 7.73711 50.893 7.47891 50.707 7.29297C50.5211 7.10703 50.2629 7 50 7C49.7371 7 49.4789 7.10703 49.293 7.29297C49.107 7.47891 49 7.73711 49 8C49 8.26289 49.107 8.52109 49.293 8.70703C49.4789 8.89297 49.7371 9 50 9Z" fill="#074DFF"/>
</svg>
