<svg width="64" height="64" viewBox="0 0 64 64" fill="none" xmlns="http://www.w3.org/2000/svg">
<path d="M29 47C29.2629 47 29.5211 46.8934 29.707 46.707C29.893 46.5211 30 46.2633 30 46C30 45.7371 29.893 45.4793 29.707 45.2934C29.5211 45.107 29.2629 45 29 45C28.7371 45 28.4789 45.107 28.293 45.2934C28.107 45.4793 28 45.7371 28 46C28 46.2633 28.107 46.5211 28.293 46.707C28.4789 46.893 28.7371 47 29 47Z" fill="#074DFF"/>
<path d="M27.7575 38C28.4438 38 29 37.3285 29 36.5C29 35.6721 28.4438 35 27.7575 35H18.2425C17.5562 35 17 35.6721 17 36.5C17 37.3285 17.5562 38 18.2425 38H27.7575Z" fill="#074DFF"/>
<path d="M12.8998 38C13.5071 38 14 37.3285 14 36.5C14 35.6721 13.5071 35 12.8998 35H9.10021C8.49251 35 8 35.6721 8 36.5C8 37.3285 8.49251 38 9.10021 38H12.8998Z" fill="#074DFF"/>
<path d="M51 58C50.7371 58 50.4789 58.1605 50.293 58.4393C50.107 58.7181 50 59.1052 50 59.4994C50 59.8954 50.107 60.2819 50.293 60.5595C50.4789 60.8395 50.7371 61 51 61C51.2629 61 51.5211 60.8395 51.707 60.5595C51.893 60.2807 52 59.8948 52 59.4994C52 59.1052 51.893 58.7181 51.707 58.4393C51.5211 58.1605 51.2629 58 51 58Z" fill="#074DFF"/>
<path d="M60.2826 23.3012H57.3555V14.5802C57.3555 11.2255 54.7273 8.47411 51.4218 8.27415L54.4946 5.20163V6.45573C54.4946 7.13493 55.0455 7.68628 55.7251 7.68628C56.4047 7.68628 56.9556 7.13493 56.9556 6.45573V2.23054C56.9556 1.55086 56.4047 1 55.7251 1H51.5006C50.821 1 50.2702 1.55086 50.2702 2.23054C50.2702 2.91023 50.821 3.46109 51.5006 3.46109H52.7542L47.9544 8.26165H34.7148C34.0352 8.26165 33.4844 8.81251 33.4844 9.49219C33.4844 10.1714 34.0352 10.7227 34.7148 10.7227H45.4935L31.8127 24.4039C31.209 24.077 30.5298 23.903 29.8242 23.903C29.2268 23.903 28.649 24.0285 28.1198 24.2645L23.7646 19.909C24.4433 18.3737 24.1559 16.5111 22.8995 15.2546C21.2681 13.6232 18.614 13.6232 16.9831 15.2546C15.6565 16.5813 15.409 18.5848 16.24 20.1643L12.6943 23.7103C11.1139 22.8748 9.10715 23.1209 7.77911 24.4496C6.98892 25.2398 6.55345 26.2906 6.55345 27.4077C6.55345 28.5252 6.98892 29.576 7.77911 30.3663C8.56931 31.1565 9.62001 31.5915 10.737 31.5915C11.8546 31.5915 12.9053 31.1565 13.6955 30.3663C14.4856 29.576 14.9206 28.5252 14.9206 27.4077C14.9206 26.7136 14.7524 26.0454 14.4361 25.4494L17.9776 21.9072C18.5895 22.2322 19.2653 22.3946 19.941 22.3946C20.7067 22.3946 21.4714 22.1855 22.1439 21.7693L26.2635 25.8892C25.8584 26.5429 25.6406 27.2981 25.6406 28.0869C25.6406 29.2044 26.0756 30.2552 26.8658 31.0455C27.6815 31.8607 28.7528 32.2688 29.8242 32.2688C30.8956 32.2688 31.967 31.8607 32.7826 31.0455C33.5728 30.2552 34.0078 29.2044 34.0078 28.0869C34.0078 27.4043 33.8449 26.7472 33.5387 26.1589L48.9739 10.7227H51.0368C53.1642 10.7227 54.8945 12.4532 54.8945 14.5802V23.3012H41.6314C39.5819 23.3012 37.9141 24.9692 37.9141 27.0188V41.2215H3.46094V14.5802C3.46094 12.4532 5.19128 10.7227 7.31865 10.7227H23.6445C24.3236 10.7227 24.8749 10.1714 24.8749 9.49219C24.8749 8.81251 24.3236 8.26165 23.6445 8.26165H7.31865C3.8344 8.26165 1 11.0962 1 14.5802V44.8857C1 48.3697 3.8344 51.2047 7.31865 51.2047H23.5176V56.6408C20.4227 56.8917 17.9805 59.4888 17.9805 62.6474V62.7695C17.9805 63.4487 18.5313 64 19.2109 64H39.1445C39.4877 64 39.7977 63.8592 40.0208 63.6328C40.5086 63.8678 41.0546 64 41.6314 64H60.2826C62.3321 64 64 62.332 64 60.2824V27.0188C64 24.9692 62.3321 23.3012 60.2826 23.3012ZM11.9555 28.6262C11.955 28.6262 11.955 28.6262 11.9555 28.6262C11.6296 28.9516 11.1975 29.1304 10.737 29.1304C10.2771 29.1304 9.84447 28.9516 9.51907 28.6262C9.19367 28.3003 9.01439 27.8682 9.01439 27.4077C9.01439 26.9477 9.19367 26.515 9.51907 26.1896C9.85505 25.8541 10.2963 25.6859 10.7375 25.6859C11.1783 25.6859 11.6195 25.8536 11.955 26.1896C12.2809 26.515 12.4597 26.9477 12.4597 27.4077C12.4597 27.8682 12.2809 28.3003 11.9555 28.6262ZM18.7711 19.4745C18.7553 19.4567 18.7404 19.4384 18.7231 19.4211C18.7077 19.4058 18.6914 19.3928 18.6755 19.3784C18.054 18.703 18.0684 17.6494 18.7231 16.9947C19.0591 16.6587 19.5003 16.4909 19.941 16.4909C20.3823 16.4909 20.8235 16.6587 21.1595 16.9947C21.7738 17.6095 21.8242 18.5761 21.3138 19.2505C21.2787 19.2875 21.247 19.3265 21.2172 19.3668C21.198 19.388 21.1802 19.4101 21.1595 19.4308C20.5034 20.0874 19.446 20.1008 18.7711 19.4745ZM31.0422 29.3049C30.3707 29.9764 29.2777 29.9769 28.6058 29.3049C28.2804 28.9795 28.1016 28.5469 28.1016 28.0869C28.1016 27.6264 28.2804 27.1938 28.6058 26.8683C28.9312 26.5429 29.3637 26.3641 29.8242 26.3641C30.2842 26.3641 30.7168 26.5429 31.0422 26.8688C31.3676 27.1942 31.5469 27.6264 31.5469 28.0869C31.5469 28.5469 31.3676 28.9795 31.0422 29.3049ZM34.8379 51.2047H37.9141V57.792C37.0383 57.1469 35.9828 56.7335 34.8379 56.6408V51.2047ZM40.375 30.7364H61.5391V54.894H40.375V30.7364ZM41.6314 25.7623H60.2826C60.9753 25.7623 61.5391 26.3261 61.5391 27.0188V28.2753H40.375V27.0188C40.375 26.3261 40.9388 25.7623 41.6314 25.7623ZM3.46094 44.8857V43.6826H37.9141V48.7437H7.31865C5.19128 48.7437 3.46094 47.0132 3.46094 44.8857ZM32.377 51.2047V56.6191H25.9785V51.2047H32.377ZM20.6178 61.5389C21.085 60.1127 22.4284 59.0802 24.0088 59.0802H34.3471C35.927 59.0802 37.2705 60.1127 37.7377 61.5389H20.6178ZM60.2826 61.5389H41.6314C40.9388 61.5389 40.375 60.9751 40.375 60.2824V57.3551H61.5391V60.2824C61.5391 60.9751 60.9753 61.5389 60.2826 61.5389Z" fill="#074DFF"/>
<path d="M44.2227 44H49.7773C50.4522 44 51 43.552 51 43C51 42.4477 50.4522 42 49.7773 42H44.2227C43.5473 42 43 42.4477 43 43C43 43.552 43.5473 44 44.2227 44Z" fill="#074DFF"/>
<path d="M57.8828 42H55.1172C54.5001 42 54 42.4477 54 43C54 43.552 54.5001 44 55.1172 44H57.8828C58.4999 44 59 43.552 59 43C59 42.4477 58.4999 42 57.8828 42Z" fill="#074DFF"/>
<path d="M44.2121 38H57.7879C58.4574 38 59 37.552 59 37C59 36.4477 58.4574 36 57.7879 36H44.2121C43.5426 36 43 36.4477 43 37C43 37.552 43.5426 38 44.2121 38Z" fill="#074DFF"/>
<path d="M57.7879 47H44.2121C43.5426 47 43 47.6721 43 48.5C43 49.3285 43.5426 50 44.2121 50H57.7879C58.4574 50 59 49.3285 59 48.5C59 47.6721 58.4574 47 57.7879 47Z" fill="#074DFF"/>
<path d="M29 11C29.2629 11 29.5211 10.8395 29.707 10.56C29.893 10.2799 30 9.89434 30 9.5C30 9.10508 29.893 8.71836 29.707 8.43945C29.5211 8.16055 29.2629 8 29 8C28.7359 8 28.4789 8.15996 28.293 8.43945C28.107 8.7166 28 9.10391 28 9.5C28 9.89434 28.107 10.2799 28.293 10.56C28.4789 10.8395 28.7371 11 29 11Z" fill="#074DFF"/>
</svg>
