<svg width="64" height="64" viewBox="0 0 64 64" fill="none" xmlns="http://www.w3.org/2000/svg">
<g clip-path="url(#clip0_181_567)">
<path d="M53.962 15.0756H48.2953C48.2215 15.0772 47.6968 15.0973 47.3648 15.5621C47.1658 15.8406 47.1367 16.138 47.1313 16.263L45.8777 41.2011L42.2433 39.3674L42.2093 30.5731C42.2073 30.091 41.949 29.653 41.5443 29.4459L32.6293 24.8795V11.3727C32.6293 10.8924 32.3743 10.4544 31.973 10.2448L12.6197 0.126467C12.2583 -0.06278 11.8317 -0.0384073 11.4907 0.191342C11.15 0.420733 10.9427 0.822526 10.9427 1.25478V14.7272L4.98867 11.6552C4.62767 11.4684 4.202 11.4946 3.86267 11.7243C3.52333 11.9541 3.31733 12.3548 3.31733 12.786V61.491H1.16667C0.522333 61.491 0 62.0527 0 62.7455C0 63.4384 0.522333 64 1.16667 64H4.48467H23.046H62.8333C63.4777 64 64 63.4384 64 62.7455C64 62.0527 63.4777 61.491 62.8333 61.491H60.68V49.4659C60.68 48.9796 60.4183 48.5369 60.0087 48.3301L56.654 46.6373L55.1287 16.262C55.1252 16.1734 55.1 15.7569 54.7785 15.4231C54.4458 15.0772 54.0403 15.0745 53.962 15.0756ZM49.4023 17.5842H52.858L52.9753 19.9172H49.2853L49.4023 17.5842ZM49.159 22.4261H53.1013L54.2567 45.4276L48.1573 42.3502L49.159 22.4261ZM13.2767 3.25945L30.2967 12.1577V25.6702C30.2967 26.1541 30.5553 26.5946 30.9617 26.8028L39.8797 31.3706L39.9137 40.1702C39.9157 40.6548 40.1767 41.095 40.585 41.3007L58.347 50.2631V61.491H24.2127V22.363C24.2127 21.8806 23.9553 21.4408 23.5507 21.2322L13.2767 15.9311V3.25945ZM5.65133 61.491V14.7792L21.8793 23.1527V61.491H5.65133Z" fill="#074DFF"/>
<path d="M35.5 58C36.3284 58 37 57.4237 37 56.7128V51.2872C37 50.5763 36.3284 50 35.5 50C34.6716 50 34 50.5763 34 51.2872V56.7128C34 57.4237 34.6716 58 35.5 58Z" fill="#074DFF"/>
<path d="M29.5 58C30.3284 58 31 57.4237 31 56.7128V51.2872C31 50.5763 30.3284 50 29.5 50C28.6716 50 28 50.5763 28 51.2872V56.7128C28 57.4237 28.6716 58 29.5 58Z" fill="#074DFF"/>
<path d="M47.5 58C48.3284 58 49 57.4237 49 56.7128V51.2872C49 50.5763 48.3284 50 47.5 50C46.6716 50 46 50.5763 46 51.2872V56.7128C46 57.4237 46.6716 58 47.5 58Z" fill="#074DFF"/>
<path d="M53.5 58C54.3284 58 55 57.4237 55 56.7128V51.2872C55 50.5763 54.3284 50 53.5 50C52.6716 50 52 50.5763 52 51.2872V56.7128C52 57.4237 52.6716 58 53.5 58Z" fill="#074DFF"/>
<path d="M41.5 58C42.3284 58 43 57.4237 43 56.7128V51.2872C43 50.5763 42.3284 50 41.5 50C40.6716 50 40 50.5763 40 51.2872V56.7128C40 57.4237 40.672 58 41.5 58Z" fill="#074DFF"/>
</g>
<defs>
<clipPath id="clip0_181_567">
<rect width="64" height="64" fill="white"/>
</clipPath>
</defs>
</svg>
