<svg width="64" height="64" viewBox="0 0 64 64" fill="none" xmlns="http://www.w3.org/2000/svg">
<path d="M37.4997 26C37.1054 26 36.7188 26.1605 36.4394 26.4395C36.1605 26.7189 36 27.1057 36 27.5C36 27.8949 36.1605 28.2816 36.4394 28.5605C36.7188 28.8395 37.1054 29 37.4997 29C37.8946 29 38.2812 28.84 38.56 28.5605C38.8389 28.2816 39 27.8949 39 27.5C39 27.1057 38.8395 26.7184 38.56 26.4395C38.2812 26.1605 37.8946 26 37.4997 26Z" fill="#074DFF"/>
<path d="M42.5 26C42.1057 26 41.7184 26.1605 41.4395 26.4395C41.1605 26.7189 41 27.1057 41 27.5C41 27.8949 41.16 28.2816 41.4395 28.5605C41.7184 28.8395 42.1057 29 42.5 29C42.8943 29 43.2816 28.84 43.5605 28.5605C43.8395 28.2816 44 27.8949 44 27.5C44 27.1057 43.8395 26.7184 43.5605 26.4395C43.2816 26.1605 42.8943 26 42.5 26Z" fill="#074DFF"/>
<path d="M57.7308 26H49.2692C48.5686 26 48 26.6721 48 27.5C48 28.3285 48.5686 29 49.2692 29H57.7308C58.4314 29 59 28.3285 59 27.5C59 26.6721 58.4319 26 57.7308 26Z" fill="#074DFF"/>
<path d="M57.7308 42H49.2692C48.5686 42 48 42.6715 48 43.5C48 44.3285 48.5686 45 49.2692 45H57.7308C58.4314 45 59 44.3285 59 43.5C59 42.6715 58.4319 42 57.7308 42Z" fill="#074DFF"/>
<path d="M64 14.7516V8.75043C64 6.68232 62.3179 5 60.25 5H34.2485C32.1807 5 30.4985 6.68232 30.4985 8.75043V14.7516C30.4985 16.7357 32.0469 18.3639 33.9985 18.4928V21.0121C32.0469 21.141 30.4985 22.7691 30.4985 24.7533V26.2803C28.2598 24.9628 25.7808 24.0906 23.1543 23.7116C18.9487 23.1046 14.5723 23.8542 10.8301 25.8208C10.2188 26.1421 9.98391 26.8976 10.3052 27.509C10.6265 28.1204 11.3819 28.3552 11.9932 28.0344C18.9082 24.3992 27.27 25.6728 32.7998 31.2032C39.7207 38.1249 39.7207 49.388 32.7998 56.3097C25.8789 63.2314 14.6172 63.2314 7.69631 56.3097C2.13918 50.7519 0.88137 42.3593 4.56692 35.4264C4.89065 34.8164 4.6592 34.0595 4.04983 33.7358C3.43996 33.4115 2.68313 33.643 2.3594 34.2529C0.366722 38.0009 -0.400856 42.392 0.198753 46.6166C0.81887 50.9858 2.79983 54.9491 5.92824 58.0779C9.876 62.0261 15.062 64 20.2481 64C25.4336 64 30.6196 62.0261 34.5674 58.0779C36.7754 55.8697 38.3657 53.2737 39.3389 50.5077H60.25C62.3179 50.5077 64 48.8249 64 46.7568V40.7561C64 38.772 62.4517 37.1439 60.5 37.0145V34.4956C62.4517 34.3667 64 32.7381 64 30.7544V24.7533C64 22.7691 62.4517 21.141 60.5 21.0121V18.4928C62.4517 18.3639 64 16.7357 64 14.7516ZM57.9995 21.0028H36.4985V18.5021H57.9995V21.0028ZM32.9985 14.7516V8.75043C32.9985 8.06139 33.5591 7.50029 34.2485 7.50029H60.25C60.939 7.50029 61.5 8.06139 61.5 8.75043V14.7516C61.5 15.4412 60.939 16.0018 60.25 16.0018H34.2485C33.5591 16.0018 32.9985 15.4407 32.9985 14.7516ZM39.3389 37.0052C39.0391 36.1535 38.6802 35.318 38.2632 34.5049H57.9995V37.0052H39.3389ZM61.5 40.7561V46.7568C61.5 47.4463 60.939 48.0069 60.25 48.0069H40.041C40.6377 45.2073 40.6377 42.3051 40.041 39.5055H60.25C60.939 39.5055 61.5 40.0666 61.5 40.7561ZM61.5 24.7533V30.7544C61.5 31.4435 60.939 32.0046 60.25 32.0046H36.7417C36.0991 31.1036 35.3755 30.2432 34.5674 29.435C34.0654 28.9329 33.542 28.4612 32.9985 28.0188V24.7533C32.9985 24.0637 33.5591 23.5031 34.2485 23.5031H60.25C60.939 23.5031 61.5 24.0637 61.5 24.7533Z" fill="#074DFF"/>
<path d="M37.4997 13C37.8946 13 38.2812 12.8395 38.56 12.56C38.8389 12.2816 39 11.8943 39 11.5C39 11.1039 38.8395 10.7184 38.56 10.4395C38.2812 10.1605 37.8946 10 37.4997 10C37.1054 10 36.7188 10.16 36.4394 10.4395C36.1605 10.7184 36 11.1051 36 11.5C36 11.8943 36.1605 12.2816 36.4394 12.56C36.7188 12.8395 37.1054 13 37.4997 13Z" fill="#074DFF"/>
<path d="M42.5 13C42.8943 13 43.2816 12.8395 43.5605 12.56C43.8395 12.2816 44 11.8943 44 11.5C44 11.1039 43.8395 10.7184 43.5605 10.4395C43.2816 10.1605 42.8943 10 42.5 10C42.1057 10 41.7184 10.16 41.4395 10.4395C41.1605 10.7184 41 11.1051 41 11.5C41 11.8943 41.16 12.2816 41.4395 12.56C41.7184 12.8395 42.1057 13 42.5 13Z" fill="#074DFF"/>
<path d="M49.2692 13H57.7308C58.4314 13 59 12.3279 59 11.5C59 10.6715 58.4314 10 57.7308 10H49.2692C48.5686 10 48 10.6715 48 11.5C48 12.3279 48.5686 13 49.2692 13Z" fill="#074DFF"/>
<path d="M31.5028 43.6565C31.5028 44.3542 32.0617 44.9197 32.7514 44.9197C33.441 44.9197 34 44.3542 34 43.6565C34 36.1261 27.9442 30 20.5002 30C13.0563 30 7 36.1261 7 43.6565C7 44.3542 7.55944 44.9197 8.24911 44.9197C8.93829 44.9197 9.49773 44.3542 9.49773 43.6565C9.49773 37.519 14.4332 32.5262 20.5002 32.5262C23.0848 32.5262 25.4635 33.4326 27.3433 34.9474L22.5234 39.8233C20.8987 38.947 18.8307 39.2001 17.4626 40.5836C15.7877 42.278 15.7877 45.0351 17.4626 46.729C18.3 47.5762 19.4004 48 20.5002 48C21.6001 48 22.7 47.5762 23.5374 46.729C24.9055 45.3455 25.1558 43.2534 24.289 41.6099L29.1094 36.734C30.6063 38.6356 31.5028 41.042 31.5028 43.6565ZM21.7718 44.9428C21.0704 45.6519 19.9301 45.6519 19.2287 44.9428C18.5273 44.2333 18.5273 43.0792 19.2287 42.3702C19.5794 42.0155 20.0398 41.8383 20.5002 41.8383C20.9607 41.8383 21.4211 42.0155 21.7718 42.3702C22.4727 43.0792 22.4727 44.2333 21.7718 44.9428Z" fill="#074DFF"/>
<path d="M14.2749 53C13.5712 53 13 53.6715 13 54.5C13 55.3285 13.5712 56 14.2749 56H25.7251C26.4293 56 27 55.3285 27 54.5C27 53.6715 26.4293 53 25.7251 53H14.2749Z" fill="#074DFF"/>
<path d="M6.9998 31C7.26303 31 7.5208 30.893 7.70709 30.7067C7.89299 30.5208 8 30.263 8 29.9998C8 29.737 7.89299 29.4792 7.70709 29.2933C7.5208 29.1074 7.26303 29 6.9998 29C6.73697 29 6.4792 29.107 6.2933 29.2933C6.1074 29.4792 6 29.737 6 29.9998C6 30.263 6.10701 30.5208 6.2933 30.7067C6.4792 30.893 6.73697 31 6.9998 31Z" fill="#074DFF"/>
</svg>
