<svg width="64" height="64" viewBox="0 0 64 64" fill="none" xmlns="http://www.w3.org/2000/svg">
<g clip-path="url(#clip0_181_320)">
<mask id="path-1-outside-1_181_320" maskUnits="userSpaceOnUse" x="0" y="0" width="64" height="64" fill="black">
<rect fill="white" width="64" height="64"/>
<path d="M53.029 9.21424C47.2786 3.91809 39.8086 1 31.9976 1C24.1866 1 16.7167 3.91809 10.9662 9.21424C8.55994 11.4407 6.52785 14.0177 4.92681 16.8742C4.67102 17.3337 4.83207 17.9164 5.29628 18.177C5.75575 18.4328 6.33838 18.2717 6.5989 17.8075C7.9631 15.3726 9.67308 13.1698 11.6625 11.2181C13.041 12.4118 14.5283 13.4919 16.1009 14.4299C15.9778 14.8704 15.8925 15.3204 15.8925 15.7989C15.8925 17.9069 17.1714 19.7165 18.9951 20.5029C18.3983 23.8663 18.0714 27.4002 18.0241 31.0384H2.93735C3.00367 28.9351 3.28314 26.8507 3.79945 24.8279C3.92734 24.3163 3.61945 23.7952 3.10788 23.6673C2.5963 23.5394 2.07525 23.8473 1.94736 24.359C1.31737 26.8412 1 29.4135 1 31.9953C1 40.6169 4.63313 48.9259 10.971 54.7858C16.7214 60.0819 24.1914 63 32.0024 63C39.8134 63 47.2833 60.0819 53.0338 54.781C55.6011 52.4077 57.7327 49.6459 59.3716 46.5668C59.6179 46.1025 59.4427 45.5199 58.9785 45.2735C58.5095 45.0225 57.9316 45.2025 57.6853 45.6667C56.2785 48.3053 54.469 50.6786 52.3375 52.7725C51.0348 51.6403 49.6327 50.6171 48.1549 49.717C48.3064 49.2338 48.4106 48.7269 48.4106 48.1916C48.4106 45.9794 46.9896 44.1035 45.0191 43.3881C45.6065 40.0532 45.9238 36.5477 45.9712 32.9474H61.0579C60.9916 34.9797 60.7311 36.9977 60.2479 38.9589C60.12 39.4705 60.4374 39.9916 60.949 40.1148C61.0248 40.1337 61.1005 40.1432 61.1763 40.1432C61.6074 40.1432 61.9958 39.8495 62.1047 39.4137C62.6968 36.9977 63 34.5012 63 31.9905C63 23.3689 59.3669 15.0646 53.029 9.20003V9.21424ZM61.0626 31.0478H45.9759C45.9286 27.4571 45.6112 23.9705 45.0286 20.645C46.9943 19.9297 48.4106 18.0585 48.4106 15.8463C48.4106 15.3015 48.3017 14.7851 48.1454 14.2925C49.628 13.3877 51.0348 12.3597 52.3469 11.2228C57.6806 16.4574 60.8163 23.5915 61.0674 31.0526L61.0626 31.0478ZM23.5519 11.3839C25.6029 6.54722 28.2698 3.58175 31.0408 3.02277V16.8932C29.3734 16.8411 27.7156 16.6421 26.0861 16.3058C26.1003 16.14 26.1382 15.9789 26.1382 15.8036C26.1382 13.9088 25.0914 12.265 23.5567 11.3791L23.5519 11.3839ZM43.2854 19.0581C41.5139 19.0581 40.0739 17.618 40.0739 15.8463C40.0739 14.0746 41.5139 12.6345 43.2854 12.6345C45.057 12.6345 46.497 14.0746 46.497 15.8463C46.497 17.618 45.057 19.0581 43.2854 19.0581ZM38.1602 15.8463C38.1602 15.9836 38.1886 16.1116 38.1981 16.2442C36.4739 16.6184 34.7166 16.8363 32.9497 16.8932V3.02277C35.7539 3.58649 38.4444 6.61354 40.5049 11.5497C39.0981 12.4639 38.1602 14.0414 38.1602 15.8463ZM43.2854 10.7207C42.9396 10.7207 42.6033 10.7586 42.2765 10.8249C40.9312 7.59413 39.3255 5.10712 37.5444 3.44911C42.466 4.40128 47.0701 6.61354 50.9259 9.92008C49.7654 10.9101 48.5291 11.8149 47.2217 12.6155C46.2791 11.4739 44.8723 10.7254 43.2807 10.7254L43.2854 10.7207ZM32.9545 18.807C34.8871 18.7454 36.815 18.5086 38.7049 18.087C39.5197 19.745 41.1918 20.8961 43.1433 20.9529C43.707 24.1742 44.0149 27.5613 44.067 31.0478H32.9592V18.807H32.9545ZM13.0694 9.91534C16.9251 6.61354 21.5293 4.39655 26.4508 3.44438C24.684 5.09291 23.0877 7.55623 21.7472 10.7538C21.5056 10.7207 21.264 10.678 21.013 10.678C19.3504 10.678 17.8867 11.4833 16.9488 12.715C15.5799 11.886 14.2773 10.948 13.0646 9.9106L13.0694 9.91534ZM17.8014 15.8084C17.8014 14.0367 19.2414 12.5966 21.013 12.5966C22.7846 12.5966 24.2245 14.0367 24.2245 15.8084C24.2245 17.5801 22.7846 19.0202 21.013 19.0202C19.2414 19.0202 17.8014 17.5801 17.8014 15.8084ZM20.8614 20.9198C20.9135 20.9198 20.9609 20.934 21.013 20.934C22.993 20.934 24.6935 19.7971 25.5461 18.1485C27.3556 18.5322 29.1934 18.7549 31.0455 18.8117V31.0526H19.9377C19.9851 27.5518 20.2977 24.1553 20.8661 20.9198H20.8614ZM40.4955 52.4977C38.4349 57.4149 35.7492 60.4277 32.9545 60.9914V47.1258C34.7213 47.1826 36.4786 47.4005 38.2076 47.7748C38.1934 47.9216 38.1649 48.0637 38.1649 48.2106C38.1649 50.006 39.0981 51.5834 40.5002 52.4977H40.4955ZM21.013 53.3362C21.264 53.3362 21.5056 53.2983 21.7472 53.2604C23.0877 56.458 24.684 58.9213 26.4508 60.5698C21.5293 59.6177 16.9251 57.4054 13.0694 54.0989C14.282 53.0614 15.5799 52.1235 16.9535 51.2945C17.8914 52.5214 19.3551 53.3314 21.0177 53.3314L21.013 53.3362ZM21.013 44.9988C22.7846 44.9988 24.2245 46.4389 24.2245 48.2106C24.2245 49.9823 22.7846 51.4224 21.013 51.4224C19.2414 51.4224 17.8014 49.9823 17.8014 48.2106C17.8014 46.4389 19.2414 44.9988 21.013 44.9988ZM26.1382 48.2106C26.1382 48.04 26.1051 47.879 26.0861 47.7084C27.7156 47.3721 29.3782 47.1731 31.0408 47.121V60.9914C28.2698 60.4325 25.6029 57.467 23.5519 52.6303C25.0866 51.7445 26.1335 50.1054 26.1335 48.2058L26.1382 48.2106ZM31.0455 45.212C29.1982 45.2688 27.3556 45.4867 25.5461 45.8704C24.6935 44.2266 22.993 43.085 21.013 43.085C20.9609 43.085 20.9135 43.0992 20.8614 43.0992C20.293 39.8637 19.9804 36.4671 19.933 32.9664H31.0408V45.212H31.0455ZM2.93262 32.9616H18.0193C18.0667 36.5998 18.3935 40.1337 18.9904 43.4971C17.1667 44.2835 15.8878 46.0931 15.8878 48.2058C15.8878 48.6843 15.973 49.1391 16.0962 49.5749C14.5188 50.5176 13.0315 51.5929 11.6531 52.7961C6.31943 47.5616 3.17893 40.4274 2.93262 32.9664V32.9616ZM50.9306 54.0941C47.0701 57.3959 42.466 59.6129 37.5444 60.5651C39.3207 58.9118 40.917 56.439 42.2623 53.2225C42.5939 53.2888 42.9349 53.3267 43.2854 53.3267C44.8912 53.3267 46.3075 52.5688 47.2454 51.4129C48.5433 52.2135 49.7748 53.1088 50.9259 54.0941H50.9306ZM46.5017 48.2011C46.5017 49.9728 45.0617 51.4129 43.2902 51.4129C41.5186 51.4129 40.0786 49.9728 40.0786 48.2011C40.0786 46.4294 41.5186 44.9893 43.2902 44.9893C45.0617 44.9893 46.5017 46.4294 46.5017 48.2011ZM43.1386 43.0897C41.2012 43.1465 39.5481 44.2835 38.7286 45.9178C36.8339 45.4962 34.9013 45.2593 32.9592 45.1977V32.9522H44.067C44.0196 36.4529 43.707 39.8495 43.1386 43.085V43.0897Z"/>
</mask>
<path d="M53.029 9.21424C47.2786 3.91809 39.8086 1 31.9976 1C24.1866 1 16.7167 3.91809 10.9662 9.21424C8.55994 11.4407 6.52785 14.0177 4.92681 16.8742C4.67102 17.3337 4.83207 17.9164 5.29628 18.177C5.75575 18.4328 6.33838 18.2717 6.5989 17.8075C7.9631 15.3726 9.67308 13.1698 11.6625 11.2181C13.041 12.4118 14.5283 13.4919 16.1009 14.4299C15.9778 14.8704 15.8925 15.3204 15.8925 15.7989C15.8925 17.9069 17.1714 19.7165 18.9951 20.5029C18.3983 23.8663 18.0714 27.4002 18.0241 31.0384H2.93735C3.00367 28.9351 3.28314 26.8507 3.79945 24.8279C3.92734 24.3163 3.61945 23.7952 3.10788 23.6673C2.5963 23.5394 2.07525 23.8473 1.94736 24.359C1.31737 26.8412 1 29.4135 1 31.9953C1 40.6169 4.63313 48.9259 10.971 54.7858C16.7214 60.0819 24.1914 63 32.0024 63C39.8134 63 47.2833 60.0819 53.0338 54.781C55.6011 52.4077 57.7327 49.6459 59.3716 46.5668C59.6179 46.1025 59.4427 45.5199 58.9785 45.2735C58.5095 45.0225 57.9316 45.2025 57.6853 45.6667C56.2785 48.3053 54.469 50.6786 52.3375 52.7725C51.0348 51.6403 49.6327 50.6171 48.1549 49.717C48.3064 49.2338 48.4106 48.7269 48.4106 48.1916C48.4106 45.9794 46.9896 44.1035 45.0191 43.3881C45.6065 40.0532 45.9238 36.5477 45.9712 32.9474H61.0579C60.9916 34.9797 60.7311 36.9977 60.2479 38.9589C60.12 39.4705 60.4374 39.9916 60.949 40.1148C61.0248 40.1337 61.1005 40.1432 61.1763 40.1432C61.6074 40.1432 61.9958 39.8495 62.1047 39.4137C62.6968 36.9977 63 34.5012 63 31.9905C63 23.3689 59.3669 15.0646 53.029 9.20003V9.21424ZM61.0626 31.0478H45.9759C45.9286 27.4571 45.6112 23.9705 45.0286 20.645C46.9943 19.9297 48.4106 18.0585 48.4106 15.8463C48.4106 15.3015 48.3017 14.7851 48.1454 14.2925C49.628 13.3877 51.0348 12.3597 52.3469 11.2228C57.6806 16.4574 60.8163 23.5915 61.0674 31.0526L61.0626 31.0478ZM23.5519 11.3839C25.6029 6.54722 28.2698 3.58175 31.0408 3.02277V16.8932C29.3734 16.8411 27.7156 16.6421 26.0861 16.3058C26.1003 16.14 26.1382 15.9789 26.1382 15.8036C26.1382 13.9088 25.0914 12.265 23.5567 11.3791L23.5519 11.3839ZM43.2854 19.0581C41.5139 19.0581 40.0739 17.618 40.0739 15.8463C40.0739 14.0746 41.5139 12.6345 43.2854 12.6345C45.057 12.6345 46.497 14.0746 46.497 15.8463C46.497 17.618 45.057 19.0581 43.2854 19.0581ZM38.1602 15.8463C38.1602 15.9836 38.1886 16.1116 38.1981 16.2442C36.4739 16.6184 34.7166 16.8363 32.9497 16.8932V3.02277C35.7539 3.58649 38.4444 6.61354 40.5049 11.5497C39.0981 12.4639 38.1602 14.0414 38.1602 15.8463ZM43.2854 10.7207C42.9396 10.7207 42.6033 10.7586 42.2765 10.8249C40.9312 7.59413 39.3255 5.10712 37.5444 3.44911C42.466 4.40128 47.0701 6.61354 50.9259 9.92008C49.7654 10.9101 48.5291 11.8149 47.2217 12.6155C46.2791 11.4739 44.8723 10.7254 43.2807 10.7254L43.2854 10.7207ZM32.9545 18.807C34.8871 18.7454 36.815 18.5086 38.7049 18.087C39.5197 19.745 41.1918 20.8961 43.1433 20.9529C43.707 24.1742 44.0149 27.5613 44.067 31.0478H32.9592V18.807H32.9545ZM13.0694 9.91534C16.9251 6.61354 21.5293 4.39655 26.4508 3.44438C24.684 5.09291 23.0877 7.55623 21.7472 10.7538C21.5056 10.7207 21.264 10.678 21.013 10.678C19.3504 10.678 17.8867 11.4833 16.9488 12.715C15.5799 11.886 14.2773 10.948 13.0646 9.9106L13.0694 9.91534ZM17.8014 15.8084C17.8014 14.0367 19.2414 12.5966 21.013 12.5966C22.7846 12.5966 24.2245 14.0367 24.2245 15.8084C24.2245 17.5801 22.7846 19.0202 21.013 19.0202C19.2414 19.0202 17.8014 17.5801 17.8014 15.8084ZM20.8614 20.9198C20.9135 20.9198 20.9609 20.934 21.013 20.934C22.993 20.934 24.6935 19.7971 25.5461 18.1485C27.3556 18.5322 29.1934 18.7549 31.0455 18.8117V31.0526H19.9377C19.9851 27.5518 20.2977 24.1553 20.8661 20.9198H20.8614ZM40.4955 52.4977C38.4349 57.4149 35.7492 60.4277 32.9545 60.9914V47.1258C34.7213 47.1826 36.4786 47.4005 38.2076 47.7748C38.1934 47.9216 38.1649 48.0637 38.1649 48.2106C38.1649 50.006 39.0981 51.5834 40.5002 52.4977H40.4955ZM21.013 53.3362C21.264 53.3362 21.5056 53.2983 21.7472 53.2604C23.0877 56.458 24.684 58.9213 26.4508 60.5698C21.5293 59.6177 16.9251 57.4054 13.0694 54.0989C14.282 53.0614 15.5799 52.1235 16.9535 51.2945C17.8914 52.5214 19.3551 53.3314 21.0177 53.3314L21.013 53.3362ZM21.013 44.9988C22.7846 44.9988 24.2245 46.4389 24.2245 48.2106C24.2245 49.9823 22.7846 51.4224 21.013 51.4224C19.2414 51.4224 17.8014 49.9823 17.8014 48.2106C17.8014 46.4389 19.2414 44.9988 21.013 44.9988ZM26.1382 48.2106C26.1382 48.04 26.1051 47.879 26.0861 47.7084C27.7156 47.3721 29.3782 47.1731 31.0408 47.121V60.9914C28.2698 60.4325 25.6029 57.467 23.5519 52.6303C25.0866 51.7445 26.1335 50.1054 26.1335 48.2058L26.1382 48.2106ZM31.0455 45.212C29.1982 45.2688 27.3556 45.4867 25.5461 45.8704C24.6935 44.2266 22.993 43.085 21.013 43.085C20.9609 43.085 20.9135 43.0992 20.8614 43.0992C20.293 39.8637 19.9804 36.4671 19.933 32.9664H31.0408V45.212H31.0455ZM2.93262 32.9616H18.0193C18.0667 36.5998 18.3935 40.1337 18.9904 43.4971C17.1667 44.2835 15.8878 46.0931 15.8878 48.2058C15.8878 48.6843 15.973 49.1391 16.0962 49.5749C14.5188 50.5176 13.0315 51.5929 11.6531 52.7961C6.31943 47.5616 3.17893 40.4274 2.93262 32.9664V32.9616ZM50.9306 54.0941C47.0701 57.3959 42.466 59.6129 37.5444 60.5651C39.3207 58.9118 40.917 56.439 42.2623 53.2225C42.5939 53.2888 42.9349 53.3267 43.2854 53.3267C44.8912 53.3267 46.3075 52.5688 47.2454 51.4129C48.5433 52.2135 49.7748 53.1088 50.9259 54.0941H50.9306ZM46.5017 48.2011C46.5017 49.9728 45.0617 51.4129 43.2902 51.4129C41.5186 51.4129 40.0786 49.9728 40.0786 48.2011C40.0786 46.4294 41.5186 44.9893 43.2902 44.9893C45.0617 44.9893 46.5017 46.4294 46.5017 48.2011ZM43.1386 43.0897C41.2012 43.1465 39.5481 44.2835 38.7286 45.9178C36.8339 45.4962 34.9013 45.2593 32.9592 45.1977V32.9522H44.067C44.0196 36.4529 43.707 39.8495 43.1386 43.085V43.0897Z" fill="#074DFF"/>
<path d="M53.029 9.21424C47.2786 3.91809 39.8086 1 31.9976 1C24.1866 1 16.7167 3.91809 10.9662 9.21424C8.55994 11.4407 6.52785 14.0177 4.92681 16.8742C4.67102 17.3337 4.83207 17.9164 5.29628 18.177C5.75575 18.4328 6.33838 18.2717 6.5989 17.8075C7.9631 15.3726 9.67308 13.1698 11.6625 11.2181C13.041 12.4118 14.5283 13.4919 16.1009 14.4299C15.9778 14.8704 15.8925 15.3204 15.8925 15.7989C15.8925 17.9069 17.1714 19.7165 18.9951 20.5029C18.3983 23.8663 18.0714 27.4002 18.0241 31.0384H2.93735C3.00367 28.9351 3.28314 26.8507 3.79945 24.8279C3.92734 24.3163 3.61945 23.7952 3.10788 23.6673C2.5963 23.5394 2.07525 23.8473 1.94736 24.359C1.31737 26.8412 1 29.4135 1 31.9953C1 40.6169 4.63313 48.9259 10.971 54.7858C16.7214 60.0819 24.1914 63 32.0024 63C39.8134 63 47.2833 60.0819 53.0338 54.781C55.6011 52.4077 57.7327 49.6459 59.3716 46.5668C59.6179 46.1025 59.4427 45.5199 58.9785 45.2735C58.5095 45.0225 57.9316 45.2025 57.6853 45.6667C56.2785 48.3053 54.469 50.6786 52.3375 52.7725C51.0348 51.6403 49.6327 50.6171 48.1549 49.717C48.3064 49.2338 48.4106 48.7269 48.4106 48.1916C48.4106 45.9794 46.9896 44.1035 45.0191 43.3881C45.6065 40.0532 45.9238 36.5477 45.9712 32.9474H61.0579C60.9916 34.9797 60.7311 36.9977 60.2479 38.9589C60.12 39.4705 60.4374 39.9916 60.949 40.1148C61.0248 40.1337 61.1005 40.1432 61.1763 40.1432C61.6074 40.1432 61.9958 39.8495 62.1047 39.4137C62.6968 36.9977 63 34.5012 63 31.9905C63 23.3689 59.3669 15.0646 53.029 9.20003V9.21424ZM61.0626 31.0478H45.9759C45.9286 27.4571 45.6112 23.9705 45.0286 20.645C46.9943 19.9297 48.4106 18.0585 48.4106 15.8463C48.4106 15.3015 48.3017 14.7851 48.1454 14.2925C49.628 13.3877 51.0348 12.3597 52.3469 11.2228C57.6806 16.4574 60.8163 23.5915 61.0674 31.0526L61.0626 31.0478ZM23.5519 11.3839C25.6029 6.54722 28.2698 3.58175 31.0408 3.02277V16.8932C29.3734 16.8411 27.7156 16.6421 26.0861 16.3058C26.1003 16.14 26.1382 15.9789 26.1382 15.8036C26.1382 13.9088 25.0914 12.265 23.5567 11.3791L23.5519 11.3839ZM43.2854 19.0581C41.5139 19.0581 40.0739 17.618 40.0739 15.8463C40.0739 14.0746 41.5139 12.6345 43.2854 12.6345C45.057 12.6345 46.497 14.0746 46.497 15.8463C46.497 17.618 45.057 19.0581 43.2854 19.0581ZM38.1602 15.8463C38.1602 15.9836 38.1886 16.1116 38.1981 16.2442C36.4739 16.6184 34.7166 16.8363 32.9497 16.8932V3.02277C35.7539 3.58649 38.4444 6.61354 40.5049 11.5497C39.0981 12.4639 38.1602 14.0414 38.1602 15.8463ZM43.2854 10.7207C42.9396 10.7207 42.6033 10.7586 42.2765 10.8249C40.9312 7.59413 39.3255 5.10712 37.5444 3.44911C42.466 4.40128 47.0701 6.61354 50.9259 9.92008C49.7654 10.9101 48.5291 11.8149 47.2217 12.6155C46.2791 11.4739 44.8723 10.7254 43.2807 10.7254L43.2854 10.7207ZM32.9545 18.807C34.8871 18.7454 36.815 18.5086 38.7049 18.087C39.5197 19.745 41.1918 20.8961 43.1433 20.9529C43.707 24.1742 44.0149 27.5613 44.067 31.0478H32.9592V18.807H32.9545ZM13.0694 9.91534C16.9251 6.61354 21.5293 4.39655 26.4508 3.44438C24.684 5.09291 23.0877 7.55623 21.7472 10.7538C21.5056 10.7207 21.264 10.678 21.013 10.678C19.3504 10.678 17.8867 11.4833 16.9488 12.715C15.5799 11.886 14.2773 10.948 13.0646 9.9106L13.0694 9.91534ZM17.8014 15.8084C17.8014 14.0367 19.2414 12.5966 21.013 12.5966C22.7846 12.5966 24.2245 14.0367 24.2245 15.8084C24.2245 17.5801 22.7846 19.0202 21.013 19.0202C19.2414 19.0202 17.8014 17.5801 17.8014 15.8084ZM20.8614 20.9198C20.9135 20.9198 20.9609 20.934 21.013 20.934C22.993 20.934 24.6935 19.7971 25.5461 18.1485C27.3556 18.5322 29.1934 18.7549 31.0455 18.8117V31.0526H19.9377C19.9851 27.5518 20.2977 24.1553 20.8661 20.9198H20.8614ZM40.4955 52.4977C38.4349 57.4149 35.7492 60.4277 32.9545 60.9914V47.1258C34.7213 47.1826 36.4786 47.4005 38.2076 47.7748C38.1934 47.9216 38.1649 48.0637 38.1649 48.2106C38.1649 50.006 39.0981 51.5834 40.5002 52.4977H40.4955ZM21.013 53.3362C21.264 53.3362 21.5056 53.2983 21.7472 53.2604C23.0877 56.458 24.684 58.9213 26.4508 60.5698C21.5293 59.6177 16.9251 57.4054 13.0694 54.0989C14.282 53.0614 15.5799 52.1235 16.9535 51.2945C17.8914 52.5214 19.3551 53.3314 21.0177 53.3314L21.013 53.3362ZM21.013 44.9988C22.7846 44.9988 24.2245 46.4389 24.2245 48.2106C24.2245 49.9823 22.7846 51.4224 21.013 51.4224C19.2414 51.4224 17.8014 49.9823 17.8014 48.2106C17.8014 46.4389 19.2414 44.9988 21.013 44.9988ZM26.1382 48.2106C26.1382 48.04 26.1051 47.879 26.0861 47.7084C27.7156 47.3721 29.3782 47.1731 31.0408 47.121V60.9914C28.2698 60.4325 25.6029 57.467 23.5519 52.6303C25.0866 51.7445 26.1335 50.1054 26.1335 48.2058L26.1382 48.2106ZM31.0455 45.212C29.1982 45.2688 27.3556 45.4867 25.5461 45.8704C24.6935 44.2266 22.993 43.085 21.013 43.085C20.9609 43.085 20.9135 43.0992 20.8614 43.0992C20.293 39.8637 19.9804 36.4671 19.933 32.9664H31.0408V45.212H31.0455ZM2.93262 32.9616H18.0193C18.0667 36.5998 18.3935 40.1337 18.9904 43.4971C17.1667 44.2835 15.8878 46.0931 15.8878 48.2058C15.8878 48.6843 15.973 49.1391 16.0962 49.5749C14.5188 50.5176 13.0315 51.5929 11.6531 52.7961C6.31943 47.5616 3.17893 40.4274 2.93262 32.9664V32.9616ZM50.9306 54.0941C47.0701 57.3959 42.466 59.6129 37.5444 60.5651C39.3207 58.9118 40.917 56.439 42.2623 53.2225C42.5939 53.2888 42.9349 53.3267 43.2854 53.3267C44.8912 53.3267 46.3075 52.5688 47.2454 51.4129C48.5433 52.2135 49.7748 53.1088 50.9259 54.0941H50.9306ZM46.5017 48.2011C46.5017 49.9728 45.0617 51.4129 43.2902 51.4129C41.5186 51.4129 40.0786 49.9728 40.0786 48.2011C40.0786 46.4294 41.5186 44.9893 43.2902 44.9893C45.0617 44.9893 46.5017 46.4294 46.5017 48.2011ZM43.1386 43.0897C41.2012 43.1465 39.5481 44.2835 38.7286 45.9178C36.8339 45.4962 34.9013 45.2593 32.9592 45.1977V32.9522H44.067C44.0196 36.4529 43.707 39.8495 43.1386 43.085V43.0897Z" stroke="#074DFF" stroke-width="0.4" mask="url(#path-1-outside-1_181_320)"/>
</g>
<defs>
<clipPath id="clip0_181_320">
<rect width="64" height="64" fill="white"/>
</clipPath>
</defs>
</svg>
