<svg width="64" height="64" viewBox="0 0 64 64" fill="none" xmlns="http://www.w3.org/2000/svg">
<g clip-path="url(#clip0_181_377)">
<path d="M5.47168 22.288L14.8022 12.9126L27.5502 16.3445L30.9662 29.1504L21.6343 38.5258L8.88627 35.0939L5.47168 22.288Z" stroke="#074DFF" stroke-width="2" stroke-linecap="round" stroke-linejoin="round"/>
<path d="M33.0332 14.8715L42.3652 5.49756L55.1117 8.92804L58.5278 21.7354L49.1958 31.1108L36.4492 27.6789L33.0332 14.8715Z" stroke="#074DFF" stroke-width="2" stroke-linecap="round" stroke-linejoin="round"/>
<path d="M25.6523 42.5624L34.9843 33.187L47.7309 36.6189L51.1469 49.4248L41.8149 58.8002L29.0669 55.3683L25.6523 42.5624Z" stroke="#074DFF" stroke-width="2" stroke-linecap="round" stroke-linejoin="round"/>
<path d="M52.8846 11.1674L44.0781 8.91406" stroke="#074DFF" stroke-width="2" stroke-linecap="round" stroke-linejoin="round"/>
<path d="M45.3548 38.7983L36.5498 36.5449" stroke="#074DFF" stroke-width="2" stroke-linecap="round" stroke-linejoin="round"/>
<path d="M24.8617 18.9369L15.7939 16.6519" stroke="#074DFF" stroke-width="2" stroke-linecap="round" stroke-linejoin="round"/>
<path d="M57.9406 8.50841L64.0001 2.42211L61.5892 0L55.5311 6.0863L41.5167 2.31392L29.8643 14.0191L34.1289 30.0088L50.046 34.2933L61.6969 22.5881L57.9406 8.50841Z" stroke="#074DFF" stroke-width="2" stroke-linecap="round" stroke-linejoin="round"/>
<path d="M34.1344 30.0027L29.8698 14.013L13.9542 9.72852L2.3032 21.4337L6.0581 35.5134L0 41.6012L2.41089 44.0218L8.46899 37.9355L22.4835 41.7094L34.1344 30.0027Z" stroke="#074DFF" stroke-width="2" stroke-linecap="round" stroke-linejoin="round"/>
<path d="M54.3141 50.2771L50.0495 34.2874L34.1339 30.0029L22.4829 41.7096L26.2378 55.7893L20.1797 61.8756L22.5906 64.2977L28.6487 58.21L42.6632 61.9838L54.3141 50.2771Z" stroke="#074DFF" stroke-width="2" stroke-linecap="round" stroke-linejoin="round"/>
</g>
<defs>
<clipPath id="clip0_181_377">
<rect width="64" height="64" fill="white"/>
</clipPath>
</defs>
</svg>
