<svg width="64" height="64" viewBox="0 0 64 64" fill="none" xmlns="http://www.w3.org/2000/svg">
<g clip-path="url(#clip0_186_1070)">
<path d="M36.3867 10.5112C36.0727 9.89645 35.3198 9.65231 34.7056 9.96627C34.0908 10.2797 33.8467 11.0327 34.1606 11.6474C37.4692 18.1313 36.2309 25.9487 31.0796 31.1001C24.5498 37.6298 13.9253 37.6298 7.39551 31.1001C0.866211 24.5708 0.866211 13.9463 7.39551 7.41647C12.5249 2.28707 20.3184 1.03659 26.7881 4.30465C27.4038 4.61618 28.1558 4.36862 28.4668 3.75289C28.7783 3.13668 28.5312 2.38522 27.915 2.0737C20.479 -1.68216 11.5229 -0.24564 5.62793 5.64938C-1.87598 13.1533 -1.87598 25.3632 5.62793 32.8676C8.03418 35.2739 10.9248 36.9072 13.9883 37.7705V58.7509C13.9883 61.6455 16.3433 64 19.2373 64C22.1318 64 24.4863 61.6455 24.4863 58.7509V37.77C27.5498 36.9072 30.4404 35.2739 32.8467 32.8676C35.7798 29.9345 37.6548 26.2216 38.2695 22.1313C38.8711 18.123 38.2202 14.1045 36.3867 10.5112ZM19.2378 61.5004C17.7217 61.5004 16.4883 60.267 16.4883 58.7509V44.8071H21.9873V58.7509C21.9873 60.267 20.7539 61.5004 19.2378 61.5004ZM21.9873 42.3076H16.4883V38.2998C17.3994 38.4301 18.3184 38.4956 19.2373 38.4956C20.1567 38.4956 21.0757 38.4301 21.9873 38.2998V42.3076Z" fill="#074DFF"/>
<path d="M19.2373 33.0059C11.6572 33.0059 5.49023 26.8389 5.49023 19.2583C5.49023 11.6782 11.6572 5.51123 19.2373 5.51123C26.8179 5.51123 32.9849 11.6782 32.9849 19.2583C32.9849 26.8389 26.8179 33.0059 19.2373 33.0059ZM19.2373 8.01074C13.0356 8.01074 7.98975 13.0566 7.98975 19.2583C7.98975 25.4604 13.0356 30.5063 19.2373 30.5063C25.4394 30.5063 30.4853 25.4604 30.4853 19.2583C30.4853 13.0566 25.4394 8.01074 19.2373 8.01074Z" fill="#074DFF"/>
<path d="M62.7275 10.5103H54.729C54.0391 10.5103 53.4795 9.95068 53.4795 9.26025V1.26172C53.4795 0.571777 54.0391 0.012207 54.729 0.012207H62.7275C63.418 0.012207 63.9775 0.571777 63.9775 1.26172V9.26025C63.9775 9.95068 63.418 10.5103 62.7275 10.5103ZM55.979 8.01074H61.478V2.51172H55.979V8.01074Z" fill="#074DFF"/>
<path d="M54.7295 26.5073H46.731C46.041 26.5073 45.4814 25.9478 45.4814 25.2573V17.2588C45.4814 16.5688 46.041 16.0093 46.731 16.0093H54.7295C55.4199 16.0093 55.9795 16.5688 55.9795 17.2588V25.2573C55.9795 25.9473 55.4199 26.5073 54.7295 26.5073ZM47.981 24.0078H53.48V18.5088H47.981V24.0078Z" fill="#074DFF"/>
<path d="M24.4858 25.7573H13.9878C13.2979 25.7573 12.7383 25.1978 12.7383 24.5073V14.0093C12.7383 13.3193 13.2979 12.7598 13.9878 12.7598H24.4858C25.1758 12.7598 25.7358 13.3193 25.7358 14.0093V24.5073C25.7358 25.1978 25.1763 25.7573 24.4858 25.7573ZM15.2378 23.2578H23.2363V15.2593H15.2378V23.2578Z" fill="#074DFF"/>
<path d="M46.7305 10.5103H38.7324C38.042 10.5103 37.4824 9.95068 37.4824 9.26025V1.26172C37.4824 0.571777 38.042 0.012207 38.7324 0.012207H46.7305C47.4209 0.012207 47.9805 0.571777 47.9805 1.26172V9.26025C47.9805 9.95068 47.4209 10.5103 46.7305 10.5103ZM39.9819 8.01074H45.481V2.51172H39.9819V8.01074Z" fill="#074DFF"/>
<path d="M62.7275 42.5039H54.729C54.0391 42.5039 53.4795 41.9443 53.4795 41.2544V33.2559C53.4795 32.5659 54.0391 32.0059 54.729 32.0059H62.7275C63.418 32.0059 63.9775 32.5659 63.9775 33.2559V41.2544C63.9775 41.9443 63.418 42.5039 62.7275 42.5039ZM55.979 40.0044H61.478V34.5054H55.979V40.0044Z" fill="#074DFF"/>
<path d="M54.7295 58.501H46.731C46.041 58.501 45.4814 57.9414 45.4814 57.2515V49.2529C45.4814 48.5625 46.041 48.0029 46.731 48.0029H54.7295C55.4199 48.0029 55.9795 48.5625 55.9795 49.2529V57.2515C55.9795 57.9414 55.4199 58.501 54.7295 58.501ZM47.981 56.0015H53.48V50.5024H47.981V56.0015Z" fill="#074DFF"/>
<path d="M46.7305 42.5039H38.7324C38.042 42.5039 37.4824 41.9443 37.4824 41.2544V33.2559C37.4824 32.5659 38.042 32.0059 38.7324 32.0059H46.7305C47.4209 32.0059 47.9805 32.5659 47.9805 33.2559V41.2544C47.9805 41.9443 47.4209 42.5039 46.7305 42.5039ZM39.9819 40.0044H45.481V34.5054H39.9819V40.0044Z" fill="#074DFF"/>
<path d="M38.7329 58.501H30.7344C30.0439 58.501 29.4844 57.9414 29.4844 57.2515V49.2529C29.4844 48.5625 30.0439 48.0029 30.7344 48.0029H38.7329C39.4228 48.0029 39.9824 48.5625 39.9824 49.2529V57.2515C39.9824 57.9414 39.4228 58.501 38.7329 58.501ZM31.9839 56.0015H37.4829V50.5024H31.9839V56.0015Z" fill="#074DFF"/>
<path d="M31.9629 7.7832C31.6338 7.7832 31.3115 7.64941 31.0791 7.41699C30.8467 7.18457 30.7129 6.86182 30.7129 6.5332C30.7129 6.20459 30.8467 5.88232 31.0791 5.6499C31.3115 5.41602 31.6338 5.28369 31.9629 5.28369C32.2915 5.28369 32.6138 5.41602 32.8462 5.6499C33.0786 5.88232 33.2124 6.20312 33.2124 6.5332C33.2124 6.86182 33.0786 7.18457 32.8462 7.41699C32.6138 7.64941 32.2915 7.7832 31.9629 7.7832Z" fill="#074DFF"/>
</g>
<defs>
<clipPath id="clip0_186_1070">
<rect width="64" height="64" fill="white"/>
</clipPath>
</defs>
</svg>
