<svg width="64" height="64" viewBox="0 0 64 64" fill="none" xmlns="http://www.w3.org/2000/svg">
<g clip-path="url(#clip0_192_1332)">
<path d="M56.8838 11.3193L45.9307 0.366211C45.6963 0.131836 45.3784 0 45.0469 0H10.5C8.43213 0 6.75 1.68213 6.75 3.75V60.25C6.75 62.3179 8.43213 64 10.5 64H26.375C27.0654 64 27.625 63.4404 27.625 62.75C27.625 62.0596 27.0654 61.5 26.375 61.5H10.5C9.81055 61.5 9.25 60.9395 9.25 60.25V3.75C9.25 3.06055 9.81055 2.5 10.5 2.5H43.7915V9.7085C43.7915 11.7764 45.4736 13.4585 47.5415 13.4585H54.75V60.25C54.75 60.9395 54.1895 61.5 53.5 61.5H37.625C36.9346 61.5 36.375 62.0596 36.375 62.75C36.375 63.4404 36.9346 64 37.625 64H53.5C55.5679 64 57.25 62.3179 57.25 60.25V12.2031C57.25 11.8716 57.1182 11.5537 56.8838 11.3193ZM46.2915 9.7085V4.2627L52.9873 10.9585H47.5415C46.8525 10.9585 46.2915 10.3975 46.2915 9.7085Z" fill="#074DFF"/>
<path d="M24 11H19C18.3096 11 17.75 11.5596 17.75 12.25C17.75 12.9404 18.3096 13.5 19 13.5H24C24.6904 13.5 25.25 12.9404 25.25 12.25C25.25 11.5596 24.6904 11 24 11Z" fill="#074DFF"/>
<path d="M24 16H19C18.3096 16 17.75 16.5596 17.75 17.25C17.75 17.9404 18.3096 18.5 19 18.5H24C24.6904 18.5 25.25 17.9404 25.25 17.25C25.25 16.5596 24.6904 16 24 16Z" fill="#074DFF"/>
<path d="M24 21H19C18.3096 21 17.75 21.5596 17.75 22.25C17.75 22.9404 18.3096 23.5 19 23.5H24C24.6904 23.5 25.25 22.9404 25.25 22.25C25.25 21.5596 24.6904 21 24 21Z" fill="#074DFF"/>
<path d="M47 57.25C49.3433 57.25 51.25 55.3433 51.25 53C51.25 50.6567 49.3433 48.75 47 48.75C45.0913 48.75 43.4727 50.0146 42.938 51.75H37.0835V40.2495H42.938C43.4731 41.9854 45.0913 43.2495 47 43.2495C49.3433 43.2495 51.25 41.3433 51.25 38.9995C51.25 36.6562 49.3433 34.7495 47 34.7495C45.0913 34.7495 43.4727 36.0142 42.938 37.7495H37.0835V26.2495H42.938C43.4731 27.9849 45.0913 29.2495 47 29.2495C49.3433 29.2495 51.25 27.3428 51.25 24.9995C51.25 22.6558 49.3433 20.7495 47 20.7495C45.0913 20.7495 43.4727 22.0142 42.938 23.7495H37.0835V17.25C37.0835 16.5596 36.5239 16 35.8335 16H30.25V7.25C30.25 6.55957 29.6904 6 29 6H14C13.3096 6 12.75 6.55957 12.75 7.25V27.25C12.75 27.9404 13.3096 28.5 14 28.5H29C29.6904 28.5 30.25 27.9404 30.25 27.25V18.5H34.5835V53C34.5835 53.6904 35.1431 54.25 35.8335 54.25H42.938C43.4727 55.9854 45.0913 57.25 47 57.25ZM47 37.2495C47.9648 37.2495 48.75 38.0347 48.75 38.9995C48.75 39.9648 47.9648 40.7495 47 40.7495C46.0352 40.7495 45.25 39.9648 45.25 38.9995C45.25 38.0347 46.0352 37.2495 47 37.2495ZM47 23.2495C47.9648 23.2495 48.75 24.0347 48.75 24.9995C48.75 25.9644 47.9648 26.7495 47 26.7495C46.0352 26.7495 45.25 25.9644 45.25 24.9995C45.25 24.0347 46.0352 23.2495 47 23.2495ZM27.75 26H15.25V8.5H27.75V26ZM47 51.25C47.9648 51.25 48.75 52.0352 48.75 53C48.75 53.9648 47.9648 54.75 47 54.75C46.0352 54.75 45.25 53.9648 45.25 53C45.25 52.0352 46.0352 51.25 47 51.25Z" fill="#074DFF"/>
<path d="M32 61.5C31.6714 61.5 31.3486 61.6338 31.1162 61.8662C30.8838 62.0986 30.75 62.4214 30.75 62.75C30.75 63.0786 30.8838 63.4014 31.1162 63.6338C31.3486 63.8662 31.6714 64 32 64C32.3286 64 32.6514 63.8662 32.8838 63.6338C33.1162 63.4014 33.25 63.0786 33.25 62.75C33.25 62.4214 33.1162 62.0986 32.8838 61.8662C32.6514 61.6338 32.3286 61.5 32 61.5Z" fill="#074DFF"/>
</g>
<defs>
<clipPath id="clip0_192_1332">
<rect width="64" height="64" fill="white"/>
</clipPath>
</defs>
</svg>
