<svg width="32" height="32" viewBox="0 0 32 32" fill="none" xmlns="http://www.w3.org/2000/svg">
<g clip-path="url(#clip0_210_1589)">
<path d="M16 32C24.8366 32 32 24.8366 32 16C32 7.16344 24.8366 0 16 0C7.16344 0 0 7.16344 0 16C0 24.8366 7.16344 32 16 32Z" fill="#074DFF"/>
<path d="M16.0003 7.74148C18.6906 7.74148 19.0083 7.75097 20.0702 7.80074C21.0515 7.84578 21.5849 8.00934 21.9404 8.14682C22.4098 8.32934 22.7463 8.54741 23.0995 8.9006C23.4527 9.25378 23.6708 9.588 23.8533 10.0597C23.9908 10.4153 24.1543 10.9486 24.1994 11.9299C24.2468 12.9919 24.2586 13.3119 24.2586 15.9999C24.2586 18.6879 24.2492 19.0079 24.1994 20.0698C24.1543 21.0511 23.9908 21.5844 23.8533 21.94C23.6708 22.4093 23.4527 22.7459 23.0995 23.0991C22.7463 23.4523 22.4121 23.6704 21.9404 23.8529C21.5849 23.9904 21.0515 24.1539 20.0702 24.199C19.0083 24.2464 18.6906 24.2582 16.0003 24.2582C13.3099 24.2582 12.9923 24.2487 11.9303 24.199C10.949 24.1539 10.4157 23.9904 10.0601 23.8529C9.59079 23.6704 9.2542 23.4523 8.90101 23.0991C8.54783 22.7459 8.32975 22.4117 8.14724 21.94C8.00975 21.5844 7.8462 21.0511 7.80116 20.0698C7.75375 19.0079 7.7419 18.6879 7.7419 15.9999C7.7419 13.3119 7.75138 12.9919 7.80116 11.9299C7.8462 10.9486 8.00975 10.4153 8.14724 10.0597C8.32975 9.59037 8.54783 9.25378 8.90101 8.9006C9.2542 8.54741 9.58842 8.32934 10.0601 8.14682C10.4157 8.00934 10.949 7.84578 11.9303 7.80074C12.9923 7.75334 13.3123 7.74148 16.0003 7.74148ZM16.0003 5.92578C13.2649 5.92578 12.9212 5.93763 11.8474 5.98741C10.776 6.03719 10.0435 6.20548 9.40116 6.45674C8.73983 6.71511 8.17805 7.05882 7.61627 7.61823C7.05687 8.17763 6.71079 8.73941 6.45479 9.40311C6.2059 10.0431 6.03524 10.7756 5.98546 11.8493C5.93568 12.9231 5.92383 13.2668 5.92383 16.0022C5.92383 18.7376 5.93568 19.0813 5.98546 20.1551C6.03524 21.2265 6.20353 21.959 6.45479 22.6013C6.71316 23.2627 7.05687 23.8244 7.61627 24.3862C8.17568 24.9456 8.73746 25.2917 9.40116 25.5477C10.0412 25.7966 10.7736 25.9673 11.8474 26.017C12.9212 26.0668 13.2649 26.0787 16.0003 26.0787C18.7357 26.0787 19.0794 26.0668 20.1532 26.017C21.2246 25.9673 21.957 25.799 22.5994 25.5477C23.2607 25.2893 23.8225 24.9456 24.3843 24.3862C24.9437 23.8268 25.2898 23.265 25.5458 22.6013C25.7946 21.9613 25.9653 21.2289 26.0151 20.1551C26.0649 19.0813 26.0767 18.7376 26.0767 16.0022C26.0767 13.2668 26.0649 12.9231 26.0151 11.8493C25.9653 10.7779 25.797 10.0455 25.5458 9.40311C25.2874 8.74178 24.9437 8.18 24.3843 7.61823C23.8249 7.05882 23.2631 6.71274 22.5994 6.45674C21.9594 6.20786 21.2269 6.03719 20.1532 5.98741C19.0794 5.93763 18.7357 5.92578 16.0003 5.92578Z" fill="white"/>
<path d="M16.0003 10.8276C13.144 10.8276 10.8281 13.1435 10.8281 15.9998C10.8281 18.8561 13.144 21.1719 16.0003 21.1719C18.8566 21.1719 21.1724 18.8561 21.1724 15.9998C21.1724 13.1435 18.8566 10.8276 16.0003 10.8276ZM16.0003 19.3586C14.1466 19.3586 12.6415 17.8558 12.6415 15.9998C12.6415 14.1438 14.1443 12.641 16.0003 12.641C17.8563 12.641 19.3591 14.1438 19.3591 15.9998C19.3591 17.8558 17.8563 19.3586 16.0003 19.3586Z" fill="white"/>
<path d="M21.3788 11.8304C22.0465 11.8304 22.5877 11.2891 22.5877 10.6215C22.5877 9.95384 22.0465 9.4126 21.3788 9.4126C20.7112 9.4126 20.1699 9.95384 20.1699 10.6215C20.1699 11.2891 20.7112 11.8304 21.3788 11.8304Z" fill="white"/>
</g>
<defs>
<clipPath id="clip0_210_1589">
<rect width="32" height="32" fill="white"/>
</clipPath>
</defs>
</svg>
