<svg width="32" height="32" viewBox="0 0 32 32" fill="none" xmlns="http://www.w3.org/2000/svg">
<g clip-path="url(#clip0_212_1641)">
<path d="M16 32C24.8366 32 32 24.8366 32 16C32 7.16344 24.8366 0 16 0C7.16344 0 0 7.16344 0 16C0 24.8366 7.16344 32 16 32Z" fill="#074DFF"/>
<path d="M26.2207 10.8656C25.9766 9.94831 25.2536 9.22535 24.3339 8.97883C22.6699 8.5332 15.9997 8.5332 15.9997 8.5332C15.9997 8.5332 9.32945 8.5332 7.66545 8.97883C6.74812 9.22535 6.02516 9.94594 5.77864 10.8656C5.33301 12.5296 5.33301 15.9999 5.33301 15.9999C5.33301 15.9999 5.33301 19.4701 5.77864 21.1341C6.02279 22.0514 6.74575 22.7744 7.66545 23.0209C9.32945 23.4665 15.9997 23.4665 15.9997 23.4665C15.9997 23.4665 22.6699 23.4665 24.3339 23.0209C25.2512 22.7744 25.9742 22.0538 26.2207 21.1341C26.6663 19.4701 26.6663 15.9999 26.6663 15.9999C26.6663 15.9999 26.6663 12.5296 26.2207 10.8656ZM13.8663 19.1999V12.7999L19.4083 15.9999L13.8663 19.1999Z" fill="white"/>
</g>
<defs>
<clipPath id="clip0_212_1641">
<rect width="32" height="32" fill="white"/>
</clipPath>
</defs>
</svg>
