<svg width="94" height="28" viewBox="0 0 94 28" fill="none" xmlns="http://www.w3.org/2000/svg">
<g clip-path="url(#clip0_132_1411)">
<path d="M23.579 0L10.1053 6.54545V10.6364L23.579 4.09091L32 8.18182V4.09091L23.579 0Z" fill="#074DFF"/>
<path d="M3.36842 3.27273V7.36364L10.1053 10.6364V6.54545L3.36842 3.27273Z" fill="#074DFF"/>
<path d="M8.42105 16.3636V20.4545L28.6316 10.6364V6.54545L8.42105 16.3636Z" fill="#074DFF"/>
<path d="M8.42105 27V22.9091L18.5263 18V22.0909L8.42105 27Z" fill="#074DFF"/>
<path d="M8.42105 16.3636V12.2727L0 8.18182V12.2727L8.42105 16.3636Z" fill="#074DFF"/>
</g>
<path d="M49.6 11H46.896L43.744 6.216L42.56 7.384V11H40.368V0.375999H42.56V4.696L46.624 0.375999H49.504L45.312 4.568L49.6 11ZM54.4809 8.008L54.4969 7.144C54.2889 7.352 53.9209 7.464 53.1529 7.608C51.9689 7.832 51.5849 8.168 51.5849 8.84C51.5849 9.432 51.9369 9.72 52.5929 9.72C53.6649 9.72 54.4649 8.936 54.4809 8.008ZM56.5769 11H54.6409C54.5769 10.808 54.5289 10.536 54.5129 10.296C54.0169 10.84 53.1849 11.208 52.1289 11.208C50.3369 11.208 49.5049 10.328 49.5049 9.048C49.5049 6.776 51.0249 6.52 53.1209 6.232C54.1609 6.088 54.4489 5.88 54.4489 5.336C54.4489 4.824 53.9369 4.52 53.1209 4.52C52.1769 4.52 51.7929 4.984 51.6969 5.688H49.7609C49.7929 4.056 50.6889 2.92 53.2169 2.92C55.7129 2.92 56.5769 4.04 56.5769 6.024V11ZM59.5741 11H57.4941V3.128H59.4461V4.072C60.1341 3.016 60.9341 2.92 61.7821 2.92H62.0541V5.048C61.8621 5.016 61.6701 5 61.4781 5C60.1981 5 59.5741 5.64 59.5741 6.904V11ZM67.0121 8.008L67.0281 7.144C66.8201 7.352 66.4521 7.464 65.6841 7.608C64.5001 7.832 64.1161 8.168 64.1161 8.84C64.1161 9.432 64.4681 9.72 65.1241 9.72C66.1961 9.72 66.9961 8.936 67.0121 8.008ZM69.1081 11H67.1721C67.1081 10.808 67.0601 10.536 67.0441 10.296C66.5481 10.84 65.7161 11.208 64.6601 11.208C62.8681 11.208 62.0361 10.328 62.0361 9.048C62.0361 6.776 63.5561 6.52 65.6521 6.232C66.6921 6.088 66.9801 5.88 66.9801 5.336C66.9801 4.824 66.4681 4.52 65.6521 4.52C64.7081 4.52 64.3241 4.984 64.2281 5.688H62.2921C62.3241 4.056 63.2201 2.92 65.7481 2.92C68.2441 2.92 69.1081 4.04 69.1081 6.024V11ZM73.8014 9.432C74.8094 9.432 75.5774 8.584 75.5774 7.256C75.5774 5.544 74.9854 4.728 73.8014 4.728C72.6334 4.728 72.0254 5.512 72.0254 7.128C72.0254 8.536 72.7774 9.432 73.8014 9.432ZM75.5134 11.24V9.944C75.2254 10.648 74.3774 11.064 73.3534 11.064C70.7614 11.064 69.8654 9.08 69.8654 7.016C69.8654 4.568 71.4014 2.92 73.3054 2.92C74.2974 2.92 75.0174 3.304 75.5134 4.104V3.128H77.5934V11.08C77.5934 13.448 75.8654 14.728 73.6734 14.728C71.4814 14.728 69.8654 13.464 69.8654 11.432H71.8014C71.8014 12.376 72.4894 12.936 73.5294 12.936C74.6334 12.936 75.5134 12.28 75.5134 11.24ZM82.3818 9.464C83.6458 9.464 84.2858 8.664 84.2858 7.064C84.2858 5.464 83.6458 4.68 82.3818 4.68C81.1178 4.68 80.4778 5.464 80.4778 7.064C80.4778 8.664 81.1178 9.464 82.3818 9.464ZM82.3818 11.208C79.8378 11.208 78.3338 9.512 78.3338 7.064C78.3338 4.568 79.8858 2.92 82.3818 2.92C84.8458 2.92 86.3818 4.552 86.3818 7.064C86.3818 9.56 84.8298 11.208 82.3818 11.208ZM93.178 11H86.394V9.4L90.41 4.776H86.666V3.128H93.066V4.808L89.05 9.304H93.178V11ZM45.184 24.008L45.2 23.144C44.992 23.352 44.624 23.464 43.856 23.608C42.672 23.832 42.288 24.168 42.288 24.84C42.288 25.432 42.64 25.72 43.296 25.72C44.368 25.72 45.168 24.936 45.184 24.008ZM47.28 27H45.344C45.28 26.808 45.232 26.536 45.216 26.296C44.72 26.84 43.888 27.208 42.832 27.208C41.04 27.208 40.208 26.328 40.208 25.048C40.208 22.776 41.728 22.52 43.824 22.232C44.864 22.088 45.152 21.88 45.152 21.336C45.152 20.824 44.64 20.52 43.824 20.52C42.88 20.52 42.496 20.984 42.4 21.688H40.464C40.496 20.056 41.392 18.92 43.92 18.92C46.416 18.92 47.28 20.04 47.28 22.024V27ZM52.1963 27H50.0203L47.2043 19.128H49.5243L51.1723 24.328L52.8363 19.128H55.0283L52.1963 27ZM57.7159 27H55.6359V19.128H57.7159V27ZM57.7159 18.184H55.6359V16.248H57.7159V18.184ZM63.434 24.008L63.45 23.144C63.242 23.352 62.874 23.464 62.106 23.608C60.922 23.832 60.538 24.168 60.538 24.84C60.538 25.432 60.89 25.72 61.546 25.72C62.618 25.72 63.418 24.936 63.434 24.008ZM65.53 27H63.594C63.53 26.808 63.482 26.536 63.466 26.296C62.97 26.84 62.138 27.208 61.082 27.208C59.29 27.208 58.458 26.328 58.458 25.048C58.458 22.776 59.978 22.52 62.074 22.232C63.114 22.088 63.402 21.88 63.402 21.336C63.402 20.824 62.89 20.52 62.074 20.52C61.13 20.52 60.746 20.984 60.65 21.688H58.714C58.746 20.056 59.642 18.92 62.17 18.92C64.666 18.92 65.53 20.04 65.53 22.024V27ZM70.9113 23.864V21.816H72.8473V24.056C72.8473 25.72 71.8873 27.208 69.6633 27.208C67.3593 27.208 66.4473 25.736 66.4473 24.04V17H68.4953V19.128H72.8473V20.6H68.4953V23.832C68.4953 24.824 68.8473 25.4 69.6953 25.4C70.5273 25.4 70.9113 24.84 70.9113 23.864ZM75.8253 27H73.7453V19.128H75.8253V27ZM75.8253 18.184H73.7453V16.248H75.8253V18.184ZM80.6474 25.464C81.9114 25.464 82.5514 24.664 82.5514 23.064C82.5514 21.464 81.9114 20.68 80.6474 20.68C79.3834 20.68 78.7434 21.464 78.7434 23.064C78.7434 24.664 79.3834 25.464 80.6474 25.464ZM80.6474 27.208C78.1034 27.208 76.5994 25.512 76.5994 23.064C76.5994 20.568 78.1514 18.92 80.6474 18.92C83.1114 18.92 84.6474 20.552 84.6474 23.064C84.6474 25.56 83.0954 27.208 80.6474 27.208ZM92.5364 27H90.4404V22.232C90.4404 21.016 90.0884 20.68 89.0964 20.68C88.0084 20.68 87.4804 21.288 87.4804 22.488V27H85.4004V19.128H87.3844V20.28C87.8644 19.4 88.6644 18.92 89.9284 18.92C91.4324 18.92 92.5364 19.832 92.5364 21.544V27Z" fill="white"/>
<defs>
<clipPath id="clip0_132_1411">
<rect width="32" height="27" fill="white"/>
</clipPath>
</defs>
</svg>
