<svg width="195" height="58" viewBox="0 0 195 58" fill="none" xmlns="http://www.w3.org/2000/svg">
<g clip-path="url(#clip0_132_1384)">
<path d="M48.8421 2.07153L20.9323 15.63V24.104L48.8421 10.5456L66.2857 19.0196V10.5456L48.8421 2.07153Z" fill="#074DFF"/>
<path d="M6.97744 8.85075V17.3248L20.9323 24.104V15.63L6.97744 8.85075Z" fill="#074DFF"/>
<path d="M17.4436 35.9676V44.4417L59.3083 24.104V15.63L17.4436 35.9676Z" fill="#074DFF"/>
<path d="M17.4436 58.0001V49.5261L38.3759 39.3572V47.8313L17.4436 58.0001Z" fill="#074DFF"/>
<path d="M17.4436 35.9676V27.4936L0 19.0196V27.4936L17.4436 35.9676Z" fill="#074DFF"/>
</g>
<path d="M102.743 24.0715H97.142L90.6129 14.1618L88.1603 16.5812V24.0715H83.6197V2.06468H88.1603V11.0132L96.5786 2.06468H102.544L93.8609 10.7481L102.743 24.0715ZM112.854 17.8738L112.887 16.0841C112.456 16.515 111.694 16.747 110.103 17.0452C107.65 17.5092 106.855 18.2052 106.855 19.5972C106.855 20.8235 107.584 21.4201 108.943 21.4201C111.163 21.4201 112.82 19.7961 112.854 17.8738ZM117.195 24.0715H113.185C113.052 23.6738 112.953 23.1104 112.92 22.6132C111.892 23.7401 110.169 24.5024 107.982 24.5024C104.27 24.5024 102.546 22.6795 102.546 20.0281C102.546 15.3218 105.695 14.7915 110.036 14.195C112.191 13.8967 112.787 13.4658 112.787 12.339C112.787 11.2784 111.727 10.6487 110.036 10.6487C108.081 10.6487 107.286 11.6098 107.087 13.0681H103.076C103.143 9.68753 104.999 7.33439 110.235 7.33439C115.406 7.33439 117.195 9.65439 117.195 13.7641V24.0715ZM123.404 24.0715H119.095V7.76525H123.139V9.72068C124.564 7.53325 126.221 7.33439 127.978 7.33439H128.541V11.7424C128.143 11.6761 127.746 11.643 127.348 11.643C124.696 11.643 123.404 12.9687 123.404 15.587V24.0715ZM138.811 17.8738L138.844 16.0841C138.413 16.515 137.651 16.747 136.06 17.0452C133.608 17.5092 132.812 18.2052 132.812 19.5972C132.812 20.8235 133.541 21.4201 134.9 21.4201C137.121 21.4201 138.778 19.7961 138.811 17.8738ZM143.153 24.0715H139.143C139.01 23.6738 138.911 23.1104 138.877 22.6132C137.85 23.7401 136.127 24.5024 133.939 24.5024C130.227 24.5024 128.504 22.6795 128.504 20.0281C128.504 15.3218 131.652 14.7915 135.994 14.195C138.148 13.8967 138.745 13.4658 138.745 12.339C138.745 11.2784 137.684 10.6487 135.994 10.6487C134.039 10.6487 133.243 11.6098 133.044 13.0681H129.034C129.1 9.68753 130.956 7.33439 136.193 7.33439C141.363 7.33439 143.153 9.65439 143.153 13.7641V24.0715ZM152.875 20.8235C154.963 20.8235 156.553 19.067 156.553 16.3161C156.553 12.7698 155.327 11.0795 152.875 11.0795C150.455 11.0795 149.196 12.7035 149.196 16.051C149.196 18.9675 150.753 20.8235 152.875 20.8235ZM156.421 24.5687V21.8841C155.824 23.3424 154.068 24.2041 151.947 24.2041C146.577 24.2041 144.721 20.0944 144.721 15.819C144.721 10.7481 147.903 7.33439 151.847 7.33439C153.902 7.33439 155.393 8.12982 156.421 9.78696V7.76525H160.729V24.2372C160.729 29.1424 157.15 31.7938 152.609 31.7938C148.069 31.7938 144.721 29.1755 144.721 24.9664H148.732C148.732 26.9218 150.157 28.0818 152.311 28.0818C154.598 28.0818 156.421 26.723 156.421 24.5687ZM170.648 20.8898C173.266 20.8898 174.592 19.2327 174.592 15.9184C174.592 12.6041 173.266 10.9801 170.648 10.9801C168.03 10.9801 166.704 12.6041 166.704 15.9184C166.704 19.2327 168.03 20.8898 170.648 20.8898ZM170.648 24.5024C165.378 24.5024 162.263 20.9892 162.263 15.9184C162.263 10.7481 165.478 7.33439 170.648 7.33439C175.752 7.33439 178.934 10.715 178.934 15.9184C178.934 21.0887 175.719 24.5024 170.648 24.5024ZM193.012 24.0715H178.959V20.7572L187.278 11.179H179.523V7.76525H192.78V11.2452L184.461 20.5584H193.012V24.0715ZM93.5957 50.8738L93.6289 49.0841C93.198 49.515 92.4357 49.747 90.8449 50.0452C88.3923 50.5092 87.5969 51.2052 87.5969 52.5972C87.5969 53.8235 88.326 54.4201 89.6849 54.4201C91.9054 54.4201 93.5626 52.7961 93.5957 50.8738ZM97.9374 57.0715H93.9271C93.7946 56.6738 93.6951 56.1104 93.662 55.6132C92.6346 56.7401 90.9111 57.5024 88.7237 57.5024C85.0117 57.5024 83.2883 55.6795 83.2883 53.0281C83.2883 48.3218 86.4369 47.7915 90.7786 47.195C92.9329 46.8967 93.5294 46.4658 93.5294 45.339C93.5294 44.2784 92.4689 43.6487 90.7786 43.6487C88.8231 43.6487 88.0277 44.6098 87.8289 46.0681H83.8186C83.8849 42.6875 85.7409 40.3344 90.9774 40.3344C96.1477 40.3344 97.9374 42.6544 97.9374 46.7641V57.0715ZM108.121 57.0715H103.614L97.7805 40.7652H102.586L106 51.5367L109.447 40.7652H113.987L108.121 57.0715ZM119.555 57.0715H115.246V40.7652H119.555V57.0715ZM119.555 38.8098H115.246V34.7995H119.555V38.8098ZM131.399 50.8738L131.432 49.0841C131.002 49.515 130.239 49.747 128.648 50.0452C126.196 50.5092 125.4 51.2052 125.4 52.5972C125.4 53.8235 126.13 54.4201 127.488 54.4201C129.709 54.4201 131.366 52.7961 131.399 50.8738ZM135.741 57.0715H131.731C131.598 56.6738 131.499 56.1104 131.466 55.6132C130.438 56.7401 128.715 57.5024 126.527 57.5024C122.815 57.5024 121.092 55.6795 121.092 53.0281C121.092 48.3218 124.24 47.7915 128.582 47.195C130.736 46.8967 131.333 46.4658 131.333 45.339C131.333 44.2784 130.272 43.6487 128.582 43.6487C126.627 43.6487 125.831 44.6098 125.632 46.0681H121.622C121.688 42.6875 123.544 40.3344 128.781 40.3344C133.951 40.3344 135.741 42.6544 135.741 46.7641V57.0715ZM146.888 50.5755V46.3332H150.898V50.9732C150.898 54.4201 148.91 57.5024 144.303 57.5024C139.53 57.5024 137.641 54.4532 137.641 50.9401V36.3572H141.883V40.7652H150.898V43.8144H141.883V50.5092C141.883 52.5641 142.612 53.7572 144.369 53.7572C146.092 53.7572 146.888 52.5972 146.888 50.5755ZM157.067 57.0715H152.758V40.7652H157.067V57.0715ZM157.067 38.8098H152.758V34.7995H157.067V38.8098ZM167.056 53.8898C169.674 53.8898 171 52.2327 171 48.9184C171 45.6041 169.674 43.9801 167.056 43.9801C164.437 43.9801 163.112 45.6041 163.112 48.9184C163.112 52.2327 164.437 53.8898 167.056 53.8898ZM167.056 57.5024C161.786 57.5024 158.67 53.9892 158.67 48.9184C158.67 43.7481 161.885 40.3344 167.056 40.3344C172.16 40.3344 175.341 43.715 175.341 48.9184C175.341 54.0887 172.126 57.5024 167.056 57.5024ZM191.683 57.0715H187.341V47.195C187.341 44.6761 186.612 43.9801 184.557 43.9801C182.303 43.9801 181.21 45.2395 181.21 47.7252V57.0715H176.901V40.7652H181.011V43.1515C182.005 41.3287 183.662 40.3344 186.28 40.3344C189.396 40.3344 191.683 42.2235 191.683 45.7698V57.0715Z" fill="white"/>
<defs>
<clipPath id="clip0_132_1384">
<rect y="2.07153" width="66.2857" height="55.9286" fill="white"/>
</clipPath>
</defs>
</svg>
