<svg width="64" height="64" viewBox="0 0 64 64" fill="none" xmlns="http://www.w3.org/2000/svg">
<g clip-path="url(#clip0_181_330)">
<path d="M35.3762 13.1475H28.6226C28.1746 13.1475 27.7491 13.339 27.4542 13.6745L22.5346 19.2509C22.2861 19.5332 22.1484 19.8967 22.1484 20.2728V45.7292C22.1484 46.1053 22.2861 46.4687 22.5346 46.7511L27.4542 52.3275C27.7491 52.6616 28.1746 52.8545 28.6226 52.8545H35.3762C35.8242 52.8545 36.2497 52.663 36.5446 52.3275L41.4642 46.7511C41.7127 46.4687 41.8504 46.1053 41.8504 45.7292V20.2728C41.8504 19.8967 41.7127 19.5332 41.4642 19.2509L36.5446 13.6745C36.2497 13.3404 35.8242 13.1475 35.3762 13.1475Z" stroke="#074DFF" stroke-width="2" stroke-linecap="round" stroke-linejoin="round"/>
<path d="M51.3985 12.167L41.8516 20.995" stroke="#074DFF" stroke-width="2" stroke-linecap="round" stroke-linejoin="round"/>
<path d="M53.7859 14.5435L41.8516 27.329" stroke="#074DFF" stroke-width="2" stroke-linecap="round" stroke-linejoin="round"/>
<path d="M54.5783 14.6368C56.3862 14.6368 57.8519 13.1779 57.8519 11.3782C57.8519 9.57855 56.3862 8.11963 54.5783 8.11963C52.7703 8.11963 51.3047 9.57855 51.3047 11.3782C51.3047 13.1779 52.7703 14.6368 54.5783 14.6368Z" stroke="#074DFF" stroke-width="2" stroke-linecap="round" stroke-linejoin="round"/>
<path d="M49.9033 18.7036C50.5128 19.0908 51.1729 19.404 51.8737 19.6318" stroke="#074DFF" stroke-width="2" stroke-linecap="round" stroke-linejoin="round"/>
<path d="M56.0568 19.9325C60.1674 19.2335 63.2978 15.6701 63.2978 11.3757C63.2978 6.58214 59.3922 2.69727 54.5766 2.69727C49.761 2.69727 45.8555 6.58214 45.8555 11.3757C45.8555 11.5882 45.8625 11.7992 45.8779 12.0075" stroke="#074DFF" stroke-width="2" stroke-linecap="round" stroke-linejoin="round"/>
<path d="M46.2852 14.0737C46.5141 14.7699 46.8286 15.4283 47.2163 16.035" stroke="#074DFF" stroke-width="2" stroke-linecap="round" stroke-linejoin="round"/>
<path d="M49.9004 47.2926C50.5099 46.9053 51.1713 46.5922 51.8707 46.3657" stroke="#074DFF" stroke-width="2" stroke-linecap="round" stroke-linejoin="round"/>
<path d="M56.0554 46.064C60.1674 46.7629 63.2978 50.3277 63.2978 54.6208C63.2978 59.4143 59.3922 63.302 54.5766 63.302C49.761 63.302 45.8555 59.4143 45.8555 54.6208C45.8555 54.4083 45.8625 54.1986 45.8779 53.9903" stroke="#074DFF" stroke-width="2" stroke-linecap="round" stroke-linejoin="round"/>
<path d="M46.2842 51.9257C46.5131 51.2295 46.8277 50.5711 47.2167 49.9644" stroke="#074DFF" stroke-width="2" stroke-linecap="round" stroke-linejoin="round"/>
<path d="M16.7832 49.9644C17.1708 50.5711 17.4854 51.2295 17.7129 51.9257" stroke="#074DFF" stroke-width="2" stroke-linecap="round" stroke-linejoin="round"/>
<path d="M18.0166 56.0917C17.3145 60.1849 13.7347 63.3009 9.42048 63.3009C4.6049 63.3009 0.702148 59.4132 0.702148 54.6197C0.702148 49.8261 4.6049 45.9385 9.42048 45.9385C9.63395 45.9385 9.84601 45.9455 10.0553 45.9608" stroke="#074DFF" stroke-width="2" stroke-linecap="round" stroke-linejoin="round"/>
<path d="M12.1299 46.3662C12.8293 46.5941 13.4907 46.9072 14.1002 47.293" stroke="#074DFF" stroke-width="2" stroke-linecap="round" stroke-linejoin="round"/>
<path d="M16.7832 16.035C17.1708 15.4283 17.4854 14.7698 17.7129 14.0723" stroke="#074DFF" stroke-width="2" stroke-linecap="round" stroke-linejoin="round"/>
<path d="M18.0166 9.9079C17.3159 5.81474 13.7347 2.69873 9.42048 2.69873C4.6049 2.69873 0.702148 6.5836 0.702148 11.3771C0.702148 16.1707 4.6049 20.0583 9.42048 20.0583C9.63395 20.0583 9.8446 20.0513 10.0539 20.036" stroke="#074DFF" stroke-width="2" stroke-linecap="round" stroke-linejoin="round"/>
<path d="M12.1279 19.6318C12.8273 19.404 13.4888 19.0908 14.0983 18.7036" stroke="#074DFF" stroke-width="2" stroke-linecap="round" stroke-linejoin="round"/>
<path d="M52.2627 9.07464L48.1016 4.93115" stroke="#074DFF" stroke-width="2" stroke-linecap="round" stroke-linejoin="round"/>
<path d="M61.0532 17.8228L56.8906 13.6821" stroke="#074DFF" stroke-width="2" stroke-linecap="round" stroke-linejoin="round"/>
<path d="M22.1482 27.329L10.2139 14.5435" stroke="#074DFF" stroke-width="2" stroke-linecap="round" stroke-linejoin="round"/>
<path d="M22.1485 20.995L12.6016 12.167" stroke="#074DFF" stroke-width="2" stroke-linecap="round" stroke-linejoin="round"/>
<path d="M9.42203 14.6368C11.23 14.6368 12.6956 13.1779 12.6956 11.3782C12.6956 9.57855 11.23 8.11963 9.42203 8.11963C7.61407 8.11963 6.14844 9.57855 6.14844 11.3782C6.14844 13.1779 7.61407 14.6368 9.42203 14.6368Z" stroke="#074DFF" stroke-width="2" stroke-linecap="round" stroke-linejoin="round"/>
<path d="M15.8989 4.93115L11.7363 9.07464" stroke="#074DFF" stroke-width="2" stroke-linecap="round" stroke-linejoin="round"/>
<path d="M7.10787 13.6821L2.94531 17.8228" stroke="#074DFF" stroke-width="2" stroke-linecap="round" stroke-linejoin="round"/>
<path d="M22.1485 45.0044L12.6016 53.8324" stroke="#074DFF" stroke-width="2" stroke-linecap="round" stroke-linejoin="round"/>
<path d="M22.1482 38.6704L10.2139 51.456" stroke="#074DFF" stroke-width="2" stroke-linecap="round" stroke-linejoin="round"/>
<path d="M9.42203 57.878C11.23 57.878 12.6956 56.4191 12.6956 54.6194C12.6956 52.8198 11.23 51.3608 9.42203 51.3608C7.61407 51.3608 6.14844 52.8198 6.14844 54.6194C6.14844 56.4191 7.61407 57.878 9.42203 57.878Z" stroke="#074DFF" stroke-width="2" stroke-linecap="round" stroke-linejoin="round"/>
<path d="M11.7363 56.9233L15.8989 61.0668" stroke="#074DFF" stroke-width="2" stroke-linecap="round" stroke-linejoin="round"/>
<path d="M2.94531 48.1748L7.10787 52.3155" stroke="#074DFF" stroke-width="2" stroke-linecap="round" stroke-linejoin="round"/>
<path d="M53.7859 51.456L41.8516 38.6704" stroke="#074DFF" stroke-width="2" stroke-linecap="round" stroke-linejoin="round"/>
<path d="M51.3985 53.8324L41.8516 45.0044" stroke="#074DFF" stroke-width="2" stroke-linecap="round" stroke-linejoin="round"/>
<path d="M54.5783 57.878C56.3862 57.878 57.8519 56.4191 57.8519 54.6194C57.8519 52.8198 56.3862 51.3608 54.5783 51.3608C52.7703 51.3608 51.3047 52.8198 51.3047 54.6194C51.3047 56.4191 52.7703 57.878 54.5783 57.878Z" stroke="#074DFF" stroke-width="2" stroke-linecap="round" stroke-linejoin="round"/>
<path d="M48.1016 61.0668L52.2627 56.9233" stroke="#074DFF" stroke-width="2" stroke-linecap="round" stroke-linejoin="round"/>
<path d="M56.8906 52.3155L61.0532 48.1748" stroke="#074DFF" stroke-width="2" stroke-linecap="round" stroke-linejoin="round"/>
<path d="M30.208 20.0332V22.3901" stroke="#074DFF" stroke-width="2" stroke-linecap="round" stroke-linejoin="round"/>
<path d="M33.791 20.0332V22.3901" stroke="#074DFF" stroke-width="2" stroke-linecap="round" stroke-linejoin="round"/>
<path d="M30.208 42.8994V45.2563" stroke="#074DFF" stroke-width="2" stroke-linecap="round" stroke-linejoin="round"/>
<path d="M33.791 42.8994V45.2563" stroke="#074DFF" stroke-width="2" stroke-linecap="round" stroke-linejoin="round"/>
</g>
<defs>
<clipPath id="clip0_181_330">
<rect width="64" height="64" fill="white"/>
</clipPath>
</defs>
</svg>
