<svg width="32" height="32" viewBox="0 0 32 32" fill="none" xmlns="http://www.w3.org/2000/svg">
<g clip-path="url(#clip0_210_1587)">
<path d="M32 16C32 7.16326 24.8367 0 16 0C7.16326 0 0 7.16326 0 16C0 23.9858 5.85007 30.6062 13.4993 31.8056V20.6246H9.43644V16H13.4993V12.4753C13.4993 8.46459 15.8886 6.25067 19.5437 6.25067C21.2954 6.25067 23.1253 6.56356 23.1253 6.56356V10.5007H21.1081C19.1218 10.5007 18.5007 11.7333 18.5007 12.9991V16H22.9381L22.2293 20.6246H18.5007V31.8056C26.1499 30.6062 32 23.9858 32 16Z" fill="#074DFF"/>
<path d="M22.2265 20.6244L22.9352 15.9998H18.4979V12.9989C18.4979 11.7332 19.1166 10.5006 21.1053 10.5006H23.1225V6.56338C23.1225 6.56338 21.2926 6.25049 19.5409 6.25049C15.8857 6.25049 13.4964 8.46441 13.4964 12.4751V15.9998H9.43359V20.6244H13.4964V31.8054C14.3118 31.9334 15.1462 31.9998 15.9971 31.9998C16.8481 31.9998 17.6825 31.9334 18.4979 31.8054V20.6244H22.2265Z" fill="white"/>
</g>
<defs>
<clipPath id="clip0_210_1587">
<rect width="32" height="32" fill="white"/>
</clipPath>
</defs>
</svg>
