<svg width="32" height="32" viewBox="0 0 32 32" fill="none" xmlns="http://www.w3.org/2000/svg">
<g clip-path="url(#clip0_212_1663)">
<path d="M16 32C24.8366 32 32 24.8366 32 16C32 7.16344 24.8366 0 16 0C7.16344 0 0 7.16344 0 16C0 24.8366 7.16344 32 16 32Z" fill="#074DFF"/>
<path d="M17.6855 13.0243C17.9431 12.7267 18.1543 12.4266 18.4189 12.1718C19.2312 11.3859 20.1921 10.9906 21.3154 11.0002C21.9327 11.0049 22.5408 11.0502 23.1349 11.2264C24.4949 11.6288 25.284 12.5909 25.6623 13.9531C25.9455 14.9747 25.9965 16.0248 25.9989 17.0774C26.0035 19.2968 25.9919 21.5186 25.9989 23.7381C25.9989 23.9452 25.9432 24 25.7436 24C24.6296 23.9905 23.5132 23.9905 22.3992 24C22.2019 24 22.1602 23.9405 22.1602 23.75C22.1671 21.6377 22.1671 19.5254 22.1602 17.4108C22.1602 16.8821 22.1253 16.3511 21.9815 15.8367C21.7146 14.8889 21.0531 14.4055 20.0853 14.4579C18.7624 14.5293 18.0754 15.2009 17.9083 16.5797C17.8689 16.9083 17.848 17.2393 17.8503 17.5703C17.8503 19.6254 17.8503 21.6806 17.855 23.7357C17.855 23.9405 17.8062 24 17.602 24C16.4787 23.9905 15.3554 23.9905 14.2321 24C14.0511 24 14 23.9524 14 23.7642C14.0046 19.6969 14.0046 15.6271 14 11.5598C14 11.3574 14.065 11.3121 14.2507 11.3121C15.3159 11.3193 16.3835 11.3217 17.4488 11.3121C17.6461 11.3121 17.6948 11.3764 17.6925 11.5669C17.6809 12.0527 17.6879 12.5385 17.6879 13.0267L17.6855 13.0243Z" fill="#FEFEFE"/>
<path d="M10.9952 18.018C10.9952 19.9211 10.9928 21.8243 11 23.7274C11 23.9391 10.9446 24.0022 10.711 23.9999C9.55509 23.9887 8.39916 23.9909 7.24082 23.9999C7.05539 23.9999 7 23.9571 7 23.7792C7.00482 19.9256 7.00482 16.0721 7 12.2162C7 12.0563 7.04094 12 7.22155 12C8.39434 12.0068 9.56713 12.009 10.7399 12C10.9663 12 10.9952 12.0788 10.9952 12.2613C10.9904 14.1802 10.9928 16.0991 10.9928 18.018H10.9952Z" fill="#FEFEFE"/>
<path d="M12 7.48957C12 8.87383 10.8796 10 9.49871 10C8.13602 10 7.00523 8.87383 7.00002 7.51043C6.99481 6.13399 8.1256 5 9.50392 5C10.8718 5 11.9974 6.12357 12 7.48697V7.48957Z" fill="#FEFEFE"/>
</g>
<defs>
<clipPath id="clip0_212_1663">
<rect width="32" height="32" fill="white"/>
</clipPath>
</defs>
</svg>
