<svg width="64" height="64" viewBox="0 0 64 64" fill="none" xmlns="http://www.w3.org/2000/svg">
<g clip-path="url(#clip0_186_972)">
<path d="M62.1716 15.5029C62.1716 12.6078 59.8166 10.2528 56.9216 10.2528C55.4352 10.2528 54.092 10.8749 53.1359 11.871L32.648 0.0423589C32.2613 -0.180786 31.7852 -0.180786 31.3985 0.0423589L10.9102 11.871C9.95413 10.8749 8.61135 10.2528 7.12502 10.2528C4.22999 10.2528 1.875 12.6078 1.875 15.5029C1.875 17.9667 3.58155 20.0385 5.87501 20.601V44.25C5.87501 44.6963 6.11329 45.1089 6.50001 45.3325L26.9815 57.1578C26.8458 57.6236 26.7716 58.1158 26.7716 58.6251C26.7716 61.5196 29.1265 63.8751 32.0216 63.8751C34.9161 63.8751 37.2711 61.5196 37.2711 58.6251C37.2711 58.1163 37.1974 57.625 37.0616 57.1592L57.5466 45.3325C57.9333 45.1094 58.1716 44.6963 58.1716 44.25V20.601C60.465 20.0385 62.1716 17.9667 62.1716 15.5029ZM4.37501 15.5029C4.37501 13.9862 5.60841 12.7528 7.12502 12.7528C8.64113 12.7528 9.87454 13.9862 9.87454 15.5029C9.87454 17.019 8.64113 18.2529 7.12502 18.2529C5.60841 18.2529 4.37501 17.019 4.37501 15.5029ZM32.0216 61.3751C30.505 61.3751 29.2716 60.1417 29.2716 58.6251C29.2716 57.1089 30.505 55.875 32.0216 55.875C33.5377 55.875 34.7716 57.1089 34.7716 58.6251C34.7716 60.1417 33.5377 61.3751 32.0216 61.3751ZM35.8097 54.9956C34.8531 53.9981 33.5094 53.375 32.0216 53.375C30.5348 53.375 29.191 53.9976 28.2349 54.9942L8.37502 43.5283V20.601C10.668 20.0385 12.3745 17.9667 12.3745 15.5029C12.3745 14.9931 12.3003 14.5004 12.1641 14.0336L32.023 2.56825L51.8825 14.0336C51.7462 14.5004 51.672 14.9926 51.672 15.5029C51.672 17.9667 53.3786 20.0385 55.6715 20.601V43.5283L35.8097 54.9956ZM56.9216 18.2529C55.4054 18.2529 54.1715 17.019 54.1715 15.5029C54.1715 13.9862 55.4054 12.7528 56.9216 12.7528C58.4382 12.7528 59.6716 13.9862 59.6716 15.5029C59.6716 17.019 58.4382 18.2529 56.9216 18.2529Z" fill="#074DFF"/>
<path d="M49.1481 19.266L32.648 9.74011C32.2613 9.51697 31.7852 9.51697 31.3985 9.74011L14.8984 19.266C14.5117 19.4897 14.2734 19.9023 14.2734 20.3485V39.4008C14.2734 39.8471 14.5117 40.2602 14.8984 40.4834L31.3985 50.0098C31.5918 50.1211 31.8072 50.1772 32.023 50.1772C32.2393 50.1772 32.4546 50.1211 32.648 50.0098L49.1481 40.4834C49.5348 40.2602 49.7731 39.8471 49.7731 39.4008V20.3485C49.7731 19.9023 49.5348 19.4897 49.1481 19.266ZM32.023 12.266L46.023 20.3485L32.023 28.4316L18.0234 20.3485L32.023 12.266ZM33.273 46.7622V41.125C33.273 40.4345 32.7134 39.875 32.023 39.875C31.3331 39.875 30.7735 40.4345 30.7735 41.125V46.7622L16.7734 38.6792V22.5136L31.3985 30.9575C31.5918 31.0688 31.8072 31.1249 32.023 31.1249C32.2393 31.1249 32.4546 31.0688 32.648 30.9575L47.273 22.5136V38.6792L33.273 46.7622Z" fill="#074DFF"/>
<path d="M32.022 34.25C31.6919 34.25 31.3706 34.3833 31.1367 34.6162C30.9043 34.8486 30.7705 35.1709 30.7705 35.5C30.7705 35.8286 30.9043 36.1509 31.1367 36.3833C31.3706 36.6162 31.6919 36.75 32.022 36.75C32.3506 36.75 32.6733 36.6162 32.9058 36.3833C33.1382 36.1509 33.272 35.8286 33.272 35.5C33.272 35.1709 33.1382 34.8486 32.9058 34.6162C32.6733 34.3833 32.3506 34.25 32.022 34.25Z" fill="#074DFF"/>
</g>
<defs>
<clipPath id="clip0_186_972">
<rect width="64" height="64" fill="white"/>
</clipPath>
</defs>
</svg>
