<svg width="64" height="64" viewBox="0 0 64 64" fill="none" xmlns="http://www.w3.org/2000/svg">
<g clip-path="url(#clip0_192_1216)">
<path d="M60.25 32H37.3823C36.8701 29.2788 34.7212 27.1299 32 26.6177V3.75C32 3.05957 31.4404 2.5 30.75 2.5C22.5361 2.5 14.8145 5.69873 9.00635 11.5063C3.19873 17.3145 0 25.0361 0 33.25C0 41.4639 3.19873 49.1855 9.00635 54.9937C14.8145 60.8013 22.5361 64 30.75 64C38.9639 64 46.6855 60.8013 52.4937 54.9937C58.3013 49.1855 61.5 41.4639 61.5 33.25C61.5 32.5596 60.9404 32 60.25 32ZM24 33.25C24 36.9717 27.0278 40 30.75 40C34.0449 40 36.7939 37.6265 37.3823 34.5H42.9365C42.3086 40.6699 37.0825 45.5 30.75 45.5C23.9951 45.5 18.5 40.0044 18.5 33.25C18.5 26.9175 23.3301 21.6914 29.5 21.0635V26.6177C26.3735 27.2061 24 29.9551 24 33.25ZM35 33.25C35 35.5933 33.0933 37.5 30.75 37.5C28.4067 37.5 26.5 35.5933 26.5 33.25C26.5 30.9067 28.4067 29 30.75 29C33.0933 29 35 30.9067 35 33.25ZM30.75 61.5C15.1729 61.5 2.5 48.8271 2.5 33.25C2.5 18.0923 14.5015 5.68408 29.5 5.02734V10.5322C17.5332 11.1836 7.99756 21.1235 7.99756 33.25C7.99756 43.5093 14.9067 52.542 24.7988 55.2158C24.9082 55.2456 25.0181 55.2598 25.126 55.2598C25.6768 55.2598 26.1812 54.8926 26.332 54.3354C26.5122 53.6689 26.1177 52.9829 25.4512 52.8027C16.647 50.4229 10.4976 42.3823 10.4976 33.25C10.4976 22.5024 18.9131 13.6851 29.5 13.0376V18.5537C21.9497 19.1899 16 25.5381 16 33.25C16 41.3833 22.6167 48 30.75 48C38.4619 48 44.8101 42.0503 45.4463 34.5H50.9639C50.4316 43.1289 44.4302 50.5581 36.0034 52.8149C35.3369 52.9932 34.9409 53.6787 35.1196 54.3457C35.269 54.9043 35.7744 55.2725 36.3262 55.2725C36.4331 55.2725 36.542 55.2588 36.6504 55.2295C46.1685 52.6807 52.9316 44.2593 53.4668 34.5H58.9727C58.3159 49.4985 45.9077 61.5 30.75 61.5Z" fill="#074DFF"/>
<path d="M62.75 11H54.75C54.0596 11 53.5 11.5596 53.5 12.25V14.2915H46.75C46.0596 14.2915 45.5 14.8511 45.5 15.5415V18.875H38.75C38.0596 18.875 37.5 19.4346 37.5 20.125V27.25C37.5 27.9404 38.0596 28.5 38.75 28.5H62.75C63.4404 28.5 64 27.9404 64 27.25V12.25C64 11.5596 63.4404 11 62.75 11ZM40 21.375H45.5V26H40V21.375ZM48 20.125V16.7915H53.5V26H48V20.125ZM61.5 26H56V13.5H61.5V26Z" fill="#074DFF"/>
<path d="M38.7513 15.7505C38.9559 15.7505 39.1629 15.7002 39.3543 15.5942L59.8157 4.29785C59.845 4.69971 60.0667 5.07959 60.4427 5.29395C60.6385 5.40527 60.8514 5.4585 61.0613 5.4585C61.4954 5.4585 61.9173 5.23193 62.1483 4.82764L63.8358 1.86914C64.0565 1.48242 64.055 1.00732 63.8314 0.62207C63.6077 0.236816 63.1956 0 62.7503 0H59.3743C58.6844 0 58.1243 0.55957 58.1243 1.25C58.1243 1.6084 58.2762 1.93066 58.5179 2.15869L38.1463 13.4058C37.5418 13.7393 37.3221 14.4995 37.6561 15.104C37.8841 15.5171 38.3109 15.7505 38.7513 15.7505Z" fill="#074DFF"/>
<path d="M30.75 53.5024C30.4214 53.5024 30.0986 53.6362 29.8662 53.8687C29.6338 54.1011 29.5 54.4238 29.5 54.7524C29.5 55.0811 29.6338 55.4038 29.8662 55.6362C30.0986 55.8687 30.4214 56.0024 30.75 56.0024C31.0786 56.0024 31.4014 55.8687 31.6338 55.6362C31.8662 55.4038 32 55.0811 32 54.7524C32 54.4238 31.8662 54.1011 31.6338 53.8687C31.4014 53.6362 31.0786 53.5024 30.75 53.5024Z" fill="#074DFF"/>
</g>
<defs>
<clipPath id="clip0_192_1216">
<rect width="64" height="64" fill="white"/>
</clipPath>
</defs>
</svg>
