<svg width="32" height="32" viewBox="0 0 32 32" fill="none" xmlns="http://www.w3.org/2000/svg">
<g clip-path="url(#clip0_212_1649)">
<path d="M16 32C24.8366 32 32 24.8366 32 16C32 7.16344 24.8366 0 16 0C7.16344 0 0 7.16344 0 16C0 24.8366 7.16344 32 16 32Z" fill="#074DFF"/>
<path d="M23.7895 9.50057C23.7278 9.32279 23.6543 9.27301 23.5406 9.23035C23.2917 9.13553 22.8698 9.27775 22.8698 9.27775C22.8698 9.27775 7.91509 14.6538 7.06175 15.2487C6.87686 15.3767 6.81523 15.4502 6.78679 15.5379C6.63983 15.9622 7.09968 16.1495 7.09968 16.1495L10.9539 17.4058C10.9539 17.4058 11.0985 17.4271 11.1483 17.3939C12.0253 16.8392 19.9708 11.8235 20.4283 11.6552C20.5018 11.6339 20.5539 11.6576 20.5397 11.7074C20.3572 12.3521 13.457 18.4843 13.457 18.4843C13.457 18.4843 13.4309 18.5175 13.4143 18.5554L13.4049 18.5506L13.0446 22.3741C13.0446 22.3741 12.8929 23.545 14.0662 22.3741C14.8935 21.5468 15.6923 20.857 16.0929 20.5204C17.4179 21.4354 18.8449 22.4475 19.4588 22.9761C19.7669 23.2416 20.0277 23.2843 20.2386 23.2772C20.8218 23.2558 20.9853 22.6135 20.9853 22.6135C20.9853 22.6135 23.7112 11.6458 23.8013 10.1761C23.8108 10.0315 23.8226 9.94146 23.8226 9.8419C23.8226 9.70442 23.8108 9.56694 23.7895 9.50057Z" fill="white"/>
</g>
<defs>
<clipPath id="clip0_212_1649">
<rect width="32" height="32" fill="white"/>
</clipPath>
</defs>
</svg>
