<svg width="32" height="32" viewBox="0 0 32 32" fill="none" xmlns="http://www.w3.org/2000/svg">
<g clip-path="url(#clip0_212_1656)">
<path d="M16 32C24.8366 32 32 24.8366 32 16C32 7.16344 24.8366 0 16 0C7.16344 0 0 7.16344 0 16C0 24.8366 7.16344 32 16 32Z" fill="#074DFF"/>
<path fill-rule="evenodd" clip-rule="evenodd" d="M23.6969 8.50021C21.7817 6.58258 19.2311 5.52539 16.5171 5.52539C10.923 5.52539 6.36951 10.0765 6.36714 15.6706C6.36714 17.4578 6.83411 19.2048 7.72299 20.7432L6.28418 26.0007L11.6649 24.5903C13.1464 25.3986 14.8175 25.8252 16.5147 25.8252H16.5194C22.1135 25.8252 26.667 21.2741 26.6694 15.6777C26.6694 12.966 25.6145 10.4178 23.6993 8.50021H23.6969ZM16.5171 24.1115H16.5147C15 24.1115 13.5162 23.7038 12.222 22.9358L11.9138 22.7532L8.72092 23.59L9.57425 20.4777L9.37277 20.1577C8.52892 18.8161 8.08329 17.2635 8.08329 15.6706C8.08329 11.0199 11.8688 7.2368 16.5242 7.2368C18.7784 7.2368 20.8951 8.11621 22.488 9.70909C24.0809 11.3044 24.958 13.4211 24.9556 15.6753C24.9556 20.326 21.1701 24.1091 16.5194 24.1091L16.5171 24.1115ZM21.144 17.7944C20.8904 17.6664 19.6436 17.0549 19.4113 16.9695C19.179 16.8842 19.0107 16.8415 18.84 17.0975C18.6717 17.3512 18.1858 17.9224 18.0365 18.0907C17.8895 18.259 17.7402 18.2804 17.4865 18.1547C17.2329 18.0267 16.4151 17.7612 15.448 16.8961C14.6943 16.2229 14.1846 15.3932 14.0377 15.1396C13.8907 14.886 14.0211 14.7485 14.1491 14.6229C14.2628 14.5091 14.4027 14.3266 14.5283 14.1796C14.654 14.0327 14.6966 13.926 14.782 13.7577C14.8673 13.5894 14.8246 13.4401 14.7606 13.3144C14.6966 13.1864 14.1894 11.9396 13.9784 11.4324C13.7722 10.9369 13.5636 11.0057 13.4071 10.9962C13.2602 10.9891 13.0895 10.9867 12.9212 10.9867C12.7529 10.9867 12.478 11.0507 12.2457 11.3044C12.0134 11.558 11.3591 12.1719 11.3591 13.4187C11.3591 14.6655 12.267 15.8721 12.395 16.0404C12.5206 16.2087 14.1823 18.771 16.728 19.8685C17.3325 20.1292 17.8065 20.2857 18.174 20.4018C18.7808 20.5938 19.3354 20.5678 19.7716 20.5014C20.2599 20.4279 21.272 19.8875 21.483 19.2949C21.694 18.7023 21.694 18.195 21.63 18.0884C21.566 17.9817 21.3977 17.9201 21.144 17.7921V17.7944Z" fill="white"/>
</g>
<defs>
<clipPath id="clip0_212_1656">
<rect width="32" height="32" fill="white"/>
</clipPath>
</defs>
</svg>
